<?xml version="1.0" encoding="utf-8"?>
<!-- Generator: Adobe Illustrator 16.0.0, SVG Export Plug-In . SVG Version: 6.00 Build 0)  -->
<!DOCTYPE svg PUBLIC "-//W3C//DTD SVG 1.1//EN" "http://www.w3.org/Graphics/SVG/1.1/DTD/svg11.dtd">
<svg version="1.1" xmlns="http://www.w3.org/2000/svg" xmlns:xlink="http://www.w3.org/1999/xlink" x="0px" y="0px" width="500px"
	 height="500px" viewBox="0 0 500 500" enable-background="new 0 0 500 500" xml:space="preserve">
<g id="Layer_1">
</g>
<g id="Layer_2">
</g>
<g id="Layer_3">
	<g>
		<defs>
			<circle id="SVGID_1_" cx="249.5" cy="251" r="185.5"/>
		</defs>
		<clipPath id="SVGID_2_">
			<use xlink:href="#SVGID_1_"  overflow="visible"/>
		</clipPath>
		<circle clip-path="url(#SVGID_2_)" fill="#8BAF40" cx="249.5" cy="250" r="185.5"/>
		<circle clip-path="url(#SVGID_2_)" fill="none" cx="249.5" cy="250" r="185.5"/>
	</g>
	<path fill="#FFFFFF" d="M257.25,250l-54,47.25v-27h-40.5v-40.5h40.5v-27L257.25,250z M230.25,175.75h54
		c14.848,0,27.562,5.281,38.137,15.863c10.57,10.574,15.863,23.281,15.863,38.137v40.5c0,14.844-5.293,27.562-15.863,38.133
		c-10.574,10.574-23.289,15.867-38.137,15.867h-54v-27h67.5c3.691,0,6.863-1.328,9.52-3.984c2.652-2.652,3.98-5.828,3.98-9.516
		v-67.5c0-3.695-1.328-6.867-3.98-9.52c-2.656-2.656-5.828-3.98-9.52-3.98h-67.5V175.75z"/>
</g>
</svg>
