<?xml version="1.0" encoding="utf-8"?>
<!-- Generator: Adobe Illustrator 16.0.0, SVG Export Plug-In . SVG Version: 6.00 Build 0)  -->
<!DOCTYPE svg PUBLIC "-//W3C//DTD SVG 1.1//EN" "http://www.w3.org/Graphics/SVG/1.1/DTD/svg11.dtd">
<svg version="1.1" xmlns="http://www.w3.org/2000/svg" xmlns:xlink="http://www.w3.org/1999/xlink" x="0px" y="0px" width="500px"
	 height="500px" viewBox="0 0 500 500" enable-background="new 0 0 500 500" xml:space="preserve">
<g id="Layer_1">
</g>
<g id="Layer_2">
</g>
<g id="Layer_3">
	<g>
		<defs>
			<circle id="SVGID_1_" cx="249.5" cy="251" r="185.5"/>
		</defs>
		<clipPath id="SVGID_2_">
			<use xlink:href="#SVGID_1_"  overflow="visible"/>
		</clipPath>
		<circle clip-path="url(#SVGID_2_)" fill="#8BAF40" cx="249.5" cy="250" r="185.5"/>
		<circle clip-path="url(#SVGID_2_)" fill="none" cx="249.5" cy="250" r="185.5"/>
		<path clip-path="url(#SVGID_2_)" fill="#FFFFFF" d="M279.139,241.456l28.066-0.002c-2.038-12.22-7.35-22.625-15.94-31.215
			c-11.265-11.264-24.854-16.899-40.764-16.899c-15.913,0.003-29.497,5.632-40.764,16.899l-14.319-14.319
			c7.507-7.508,16.103-13.208,25.773-17.084c9.676-3.886,19.448-5.825,29.309-5.825c9.863-0.003,19.633,1.939,29.312,5.822
			c9.668,3.878,18.261,9.577,25.771,17.087c12.602,12.601,20.013,27.779,22.244,45.534l27.68,0.002l-38.184,38.184L279.139,241.456z
			 M221.863,260.547l-28.066-0.002c2.039,12.22,7.35,22.624,15.943,31.217c11.264,11.265,24.848,16.895,40.761,16.896
			c15.91,0,29.497-5.632,40.76-16.896l14.319,14.318c-7.511,7.511-16.101,13.206-25.771,17.087
			c-9.676,3.881-19.445,5.822-29.309,5.82c-9.861,0-19.631-1.937-29.307-5.823c-9.673-3.878-18.266-9.576-25.774-17.084
			c-12.601-12.601-20.011-27.778-22.243-45.534h-27.682l38.184-38.183L221.863,260.547z"/>
	</g>
</g>
</svg>
