<?xml version="1.0" encoding="utf-8"?>
<!-- Generator: Adobe Illustrator 16.0.0, SVG Export Plug-In . SVG Version: 6.00 Build 0)  -->
<!DOCTYPE svg PUBLIC "-//W3C//DTD SVG 1.1//EN" "http://www.w3.org/Graphics/SVG/1.1/DTD/svg11.dtd">
<svg version="1.1" id="Layer_1" xmlns="http://www.w3.org/2000/svg" xmlns:xlink="http://www.w3.org/1999/xlink" x="0px" y="0px"
	 width="500px" height="500px" viewBox="0 0 500 500" enable-background="new 0 0 500 500" xml:space="preserve">
<g>
	<defs>
		<circle id="SVGID_1_" cx="249.5" cy="250" r="185.5"/>
	</defs>
	<clipPath id="SVGID_2_">
		<use xlink:href="#SVGID_1_"  overflow="visible"/>
	</clipPath>
	<circle clip-path="url(#SVGID_2_)" fill="#8BAF40" cx="249.5" cy="250" r="185.5"/>
	<polygon opacity="0.4" clip-path="url(#SVGID_2_)" fill="#4D4D4D" points="451.324,346.344 345.335,452.333 218.76,325.324 
		273.141,168.16 	"/>
	
		<rect x="211" y="236" transform="matrix(0.7071 -0.7071 0.7071 0.7071 -121.4571 238.7766)" opacity="0.4" clip-path="url(#SVGID_2_)" fill="#4D4D4D" width="33.001" height="60"/>
	<path clip-path="url(#SVGID_2_)" fill="#FFFFFF" d="M218.76,325.324c-0.809-0.984-0.992-2.43-0.543-4.316
		c0.449-1.805,7.652-22.414,21.602-61.832h-40.773c-1.977,0-3.418-0.852-4.316-2.566c-0.906-1.891-0.586-3.688,0.941-5.398
		c6.84-7.918,16.27-18.652,28.285-32.195c12.012-13.547,22.273-25.113,30.777-34.695c8.508-9.586,12.938-14.605,13.297-15.059
		c0.812-1.348,1.934-2.02,3.375-2.02h1.219l1.074,1.078c0.723,0.898,0.996,2.117,0.816,3.645
		c-0.184,1.082-3.738,11.32-10.668,30.715s-10.441,29.273-10.527,29.633h40.5c2.16-0.18,3.598,0.539,4.32,2.156
		c0.812,1.535,0.539,3.152-0.816,4.859l-72.621,85.055c-1.176,1.441-2.348,2.156-3.516,2.156l-1.215-0.133L218.76,325.324z"/>
</g>
</svg>
