<?xml version="1.0" encoding="utf-8"?>
<!-- Generator: Adobe Illustrator 16.0.0, SVG Export Plug-In . SVG Version: 6.00 Build 0)  -->
<!DOCTYPE svg PUBLIC "-//W3C//DTD SVG 1.1//EN" "http://www.w3.org/Graphics/SVG/1.1/DTD/svg11.dtd">
<svg version="1.1" id="Layer_1" xmlns="http://www.w3.org/2000/svg" xmlns:xlink="http://www.w3.org/1999/xlink" x="0px" y="0px"
	 width="500px" height="500px" viewBox="0 0 500 500" enable-background="new 0 0 500 500" xml:space="preserve">
<g>
	<defs>
		<circle id="SVGID_1_" cx="249.5" cy="250" r="185.5"/>
	</defs>
	<clipPath id="SVGID_2_">
		<use xlink:href="#SVGID_1_"  overflow="visible"/>
	</clipPath>
	<circle clip-path="url(#SVGID_2_)" fill="#8BAF40" cx="249.5" cy="250" r="185.5"/>
	<path opacity="0.4" clip-path="url(#SVGID_2_)" fill="#4D4D4D" d="M430.641,290.158c0,0-1.642,8.008-3.057,11.936
		c-1.202,3.336-4.83,14.326-4.83,14.326L293.501,187.167l17.074-17.075L430.641,290.158z"/>
	<path opacity="0.4" clip-path="url(#SVGID_2_)" fill="#4D4D4D" d="M415.73,332.403c0,0-3.563,7.876-9.5,16.865
		c-6.503,9.848-15.613,21.091-20.231,26.231c-3.057,3.402-13.494,13.937-24.396,22.305c-13.52,10.377-27.671,18.463-28.373,17.76
		c-5.832-5.837-135.595-135.596-135.595-135.596l82.782-82.781C280.418,197.188,410.681,327.122,415.73,332.403z"/>
	<polygon opacity="0.4" clip-path="url(#SVGID_2_)" fill="#4D4D4D" points="323.082,428.582 293.165,458.5 167.242,332.758 
		187.625,293.124 	"/>
	<path clip-path="url(#SVGID_2_)" fill="#FFFFFF" d="M182.094,287.527l30.105,30.102l-44.957,15.129L182.094,287.527z
		 M194.242,276.594l82.887-82.891l28.895,28.891l-82.895,82.891L194.242,276.594z M288.742,182.094L301.434,169
		c1.352-1.172,2.836-1.758,4.453-1.758s3.105,0.586,4.457,1.758L331,189.652c1.168,1.262,1.758,2.77,1.758,4.527
		c0,1.75-0.59,3.215-1.758,4.383l-13.371,12.422L288.742,182.094z"/>
</g>
</svg>
