<?xml version="1.0" encoding="utf-8"?>
<!-- Generator: Adobe Illustrator 16.0.0, SVG Export Plug-In . SVG Version: 6.00 Build 0)  -->
<!DOCTYPE svg PUBLIC "-//W3C//DTD SVG 1.1//EN" "http://www.w3.org/Graphics/SVG/1.1/DTD/svg11.dtd">
<svg version="1.1" id="Layer_1" xmlns="http://www.w3.org/2000/svg" xmlns:xlink="http://www.w3.org/1999/xlink" x="0px" y="0px"
	 width="500px" height="500px" viewBox="0 0 500 500" enable-background="new 0 0 500 500" xml:space="preserve">
<g>
	<defs>
		<circle id="SVGID_1_" cx="249.5" cy="242" r="185.5"/>
	</defs>
	<clipPath id="SVGID_2_">
		<use xlink:href="#SVGID_1_"  overflow="visible"/>
	</clipPath>
	<circle clip-path="url(#SVGID_2_)" fill="#8BAF40" cx="249.5" cy="242" r="185.5"/>
	<polygon opacity="0.4" clip-path="url(#SVGID_2_)" fill="#4D4D4D" points="528.489,426.989 435.739,519.739 190.5,274.5 290,282 
		285.474,184.375 	"/>
	<path clip-path="url(#SVGID_2_)" fill="#FFFFFF" d="M294.114,265.781l40.5,40.5c0.621,0.719,0.941,1.531,0.941,2.43
		s-0.32,1.707-0.941,2.43l-14.719,14.719c-0.723,0.621-1.535,0.938-2.43,0.938c-0.902,0-1.715-0.316-2.43-0.938l-40.5-40.5
		c-10.711,7.016-22.457,10.527-35.234,10.527c-18.004,0-33.395-6.391-46.172-19.168c-12.781-12.781-19.172-28.172-19.172-46.176
		c0-18,6.391-33.387,19.172-46.168c12.777-12.777,28.168-19.172,46.172-19.172c18,0,33.387,6.395,46.172,19.172
		c12.773,12.781,19.168,28.168,19.168,46.168C304.642,243.328,301.13,255.07,294.114,265.781z M207.708,199.094
		c-8.727,8.727-13.098,19.211-13.098,31.449s4.371,22.727,13.098,31.457c8.73,8.734,19.262,13.094,31.594,13.094
		c12.324,0,22.836-4.34,31.52-13.027c8.684-8.684,13.027-19.191,13.027-31.523c0-12.324-4.344-22.836-13.027-31.52
		s-19.195-13.027-31.52-13.027C226.97,185.996,216.438,190.359,207.708,199.094z"/>
</g>
</svg>
