<?xml version="1.0" encoding="utf-8"?>
<!-- Generator: Adobe Illustrator 16.0.0, SVG Export Plug-In . SVG Version: 6.00 Build 0)  -->
<!DOCTYPE svg PUBLIC "-//W3C//DTD SVG 1.1//EN" "http://www.w3.org/Graphics/SVG/1.1/DTD/svg11.dtd">
<svg version="1.1" id="Layer_1" xmlns="http://www.w3.org/2000/svg" xmlns:xlink="http://www.w3.org/1999/xlink" x="0px" y="0px"
	 width="500px" height="500px" viewBox="0 0 500 500" enable-background="new 0 0 500 500" xml:space="preserve">
<g>
	<defs>
		<circle id="SVGID_1_" cx="249.5" cy="250" r="185.5"/>
	</defs>
	<clipPath id="SVGID_2_">
		<use xlink:href="#SVGID_1_"  overflow="visible"/>
	</clipPath>
	<circle clip-path="url(#SVGID_2_)" fill="#8BAF40" cx="249.5" cy="250" r="185.5"/>
	<polygon opacity="0.4" clip-path="url(#SVGID_2_)" fill="#4D4D4D" points="560.065,441.105 445.085,556.086 197.5,308.5 
		311.108,305.729 312.074,195.296 	"/>
	<path clip-path="url(#SVGID_2_)" fill="#FFFFFF" d="M212.631,180.338c12.332-7.199,25.789-10.797,40.371-10.797
		s28.031,3.598,40.367,10.797c12.328,7.203,22.09,16.969,29.293,29.293c7.199,12.336,10.797,25.789,10.797,40.371
		c0,14.578-3.598,28.035-10.797,40.367c-7.203,12.328-16.965,22.094-29.293,29.293c-12.336,7.199-25.785,10.797-40.367,10.797
		s-28.039-3.598-40.371-10.797c-12.328-7.199-22.094-16.965-29.293-29.293c-7.199-12.332-10.797-25.789-10.797-40.367
		c0-14.582,3.598-28.035,10.797-40.371C190.537,197.307,200.303,187.541,212.631,180.338z M292.49,210.51
		c-10.934-10.934-24.102-16.398-39.488-16.398c-15.391,0-28.559,5.465-39.488,16.398c-10.938,10.934-16.402,24.102-16.402,39.492
		c0,15.387,5.465,28.555,16.402,39.488c10.93,10.934,24.098,16.398,39.488,16.398c15.387,0,28.555-5.465,39.488-16.398
		s16.398-24.102,16.398-39.488C308.889,234.611,303.424,221.443,292.49,210.51z M253.002,250.002h27v13.5h-40.5v-54h13.5V250.002z"
		/>
</g>
</svg>
