<?xml version="1.0" standalone="no"?>
<!DOCTYPE svg PUBLIC "-//W3C//DTD SVG 1.1//EN" "http://www.w3.org/Graphics/SVG/1.1/DTD/svg11.dtd" >
<svg xmlns="http://www.w3.org/2000/svg">
<metadata>Generated by IcoMoon</metadata>
<defs>
<font id="icomoon" horiz-adv-x="1024">
<font-face units-per-em="1024" ascent="960" descent="-64" />
<missing-glyph horiz-adv-x="1024" />
<glyph unicode="&#x20;" d="" horiz-adv-x="512" />
<glyph unicode="&#xe600;" d="M512 960c-282.771 0-512-229.229-512-512s229.229-512 512-512 512 229.229 512 512-229.229 512-512 512zM794.206 381.421c0 0-52.384-228.588-295.26-228.588s-276.214 234.042-276.214 288.116c0 94.414 61.587 283.357 280.978 283.357 110.717 0 173.819-59.533 173.819-59.533l-2.379 30.954c0 0 3.574 28.58 38.103 28.58s40.477-30.954 40.477-30.954l-2.379-140.486c0 0-4.764-30.954-33.349-30.954-28.569 0-110.717-2.379-135.722-2.379s-33.338 42.861-33.338 42.861 5.943 38.103 35.712 38.103 47.631 0 47.631 0-50.005 42.861-126.194 42.861c-76.194 0-202.393-70.24-202.393-195.25s97.625-214.307 192.871-214.307c173.825 0 216.686 159.532 216.686 159.532s6.834 53.253 50.005 45.241 30.948-57.154 30.948-57.154z" />
<glyph unicode="&#xe601;" d="M763.258 438.58c-43.171 8.013-50.005-45.241-50.005-45.241s-42.861-159.532-216.686-159.532c-95.246 0-192.871 89.297-192.871 214.307s126.199 195.25 202.393 195.25c76.189 0 126.194-42.861 126.194-42.861s-17.856 0-47.631 0-35.712-38.103-35.712-38.103 8.328-42.861 33.338-42.861 107.159 2.379 135.722 2.379c28.585 0 33.349 30.954 33.349 30.954l2.379 140.486c0 0-5.954 30.954-40.477 30.954s-38.103-28.58-38.103-28.58l2.379-30.954c0 0-63.097 59.533-173.819 59.533-219.391 0-280.978-188.943-280.978-283.357 0-54.074 33.338-288.116 276.214-288.116s295.26 228.588 295.26 228.588 12.223 49.141-30.948 57.154z" />
<glyph unicode="&#xe602;" d="M1024.005 447.997c0-282.771-229.231-512.003-512.003-512.003s-512.003 229.231-512.003 512.003c0 282.771 229.231 512.003 512.003 512.003s512.003-229.231 512.003-512.003z" />
<glyph unicode="&#xe603;" d="M329.784 608.115c0 0 6.579 156.929 183.015 156.929 190.133 0 191.392-156.929 191.392-156.929h-374.407z" />
<glyph unicode="&#xe604;" d="M457.128 682.393c0-11.117-9.012-20.128-20.128-20.128s-20.128 9.012-20.128 20.128c0 11.117 9.012 20.128 20.128 20.128s20.128-9.012 20.128-20.128z" />
<glyph unicode="&#xe605;" d="M614.727 682.393c0-11.117-9.012-20.128-20.128-20.128s-20.128 9.012-20.128 20.128c0 11.117 9.012 20.128 20.128 20.128s20.128-9.012 20.128-20.128z" />
<glyph unicode="&#xe606;" d="M220.743 361.641l0.098 185.282c0 0 1.45 35.199 38.366 35.199s39.897-35.199 39.897-35.199l1.292-185.282c0 0-5.303-33.498-41.194-33.498s-38.458 33.498-38.458 33.498zM770.522 327.287c35.875 0 41.189 33.493 41.189 33.493l-1.297 185.293c0 0-2.981 35.188-39.886 35.188s-38.366-35.188-38.366-35.188l-0.098-185.293c-0.005 0 2.562-33.493 38.458-33.493zM328.247 280.691c1.303-62.108 32.103-62.947 32.103-62.947l35.973 0.861 4.050-103.4c0 0 6.235-32.119 39.897-32.119s39.99 27.59 39.99 27.59l1.45 107.052 73.919 0.861-3.428-107.063c0 0 4.279-29.977 39.984-29.977 35.695 0 41.434 33.673 41.434 33.673l-1.532 102.506c0 0 0 0 34.883 0.861s37.226 38.943 37.226 38.943l-1.532 324.601-374.412-1.553c-0.005 0.005-1.308-237.781-0.005-299.888zM433.538 750.643l-30.097 47.195c0 0-5.407 5.309-10.121 2.316-4.709-2.998-1.711-8.143-1.711-8.143l32.021-45.358 9.909 3.99zM610.705 747.177l30.561 43.015c0 0 3.428 6.535-1.275 9.538-4.715 3.003-9.451-1.886-9.451-1.886l-29.798-46.705 9.963-3.962z" />
<glyph unicode="&#xe607;" d="M153.529 865.749c0 0 1.418 72.522 71.099 72.522s422.333 0 422.333 0l227.524-224.672 2.841-682.56c0 0-8.529-73.94-88.162-73.94-79.638 0-519.029 5.693-574.488 5.693s-62.57 81.051-62.57 81.051l1.423 821.905zM239.437 105.718c0 0 3.64-32.708 31.502-32.708 27.868 0 443.449-1.217 477.38-1.217 33.925 0 35.137 30.296 35.137 30.296v550.070c0 0-140.546 1.211-159.94 1.211-19.383 0-21.811 21.816-21.811 21.816v159.918c0 0-302.898-1.211-328.348-1.211-25.445 0-35.131-30.291-35.131-30.291l1.211-697.885zM660.374 820.117v-100.319h103.552l-103.552 100.319z" />
<glyph unicode="&#xe608;" d="M1024 448c0-282.77-229.23-512-512-512s-512 229.23-512 512c0 282.77 229.23 512 512 512s512-229.23 512-512z" />
<glyph unicode="&#xe609;" d="M713.18 521.749h-45.364v-45.767h-42.132v-45.778h42.132v-45.745h45.364v45.745h42.132v45.778h-42.132v45.767zM862.265 475.977v45.767h-45.375v-45.767h-42.132v-45.778h42.132v-45.745h45.375v45.745h42.132v45.778h-42.132zM448.089 308.72c-75.21 0-132.739 75.902-132.739 138.402 0 62.494 64.173 133.933 137.181 133.933 73.019 0 117.304-69.198 117.304-69.198l115.063 69.198c0 0-64.189 138.397-234.564 138.397-170.391 0-272.177-147.324-272.177-265.631 0-135.050 88.515-285.721 263.325-285.721 174.816 0 245.633 140.626 245.633 140.626l-119.516 69.204c-0.011-0.005-44.263-69.209-119.511-69.209z" />
<glyph unicode="&#xe60a;" d="M739.187 408.752h-140.494c-24.251 0-43.907-19.711-43.907-44.021v-140.868c0-24.305 19.662-44.021 43.907-44.021h140.494c24.267 0 43.907 19.716 43.907 44.021v140.868c-0.005 24.311-19.662 44.021-43.907 44.021zM720.051 258.072c0-11.546-9.341-20.897-20.859-20.897h-66.695c-11.513 0-20.848 9.357-20.848 20.897v66.89c0 11.54 9.335 20.897 20.848 20.897h66.706c11.513 0 20.854-9.351 20.854-20.897v-66.89h-0.005z" />
<glyph unicode="&#xe60b;" d="M739.187 705.387h-140.494c-24.251 0-43.907-19.711-43.907-44.021v-140.868c0-24.311 19.662-44.021 43.907-44.021h140.494c24.267 0 43.907 19.711 43.907 44.021v130.032c-0.005 24.311-19.662 54.857-43.907 54.857zM720.051 556.067c0-11.54-9.341-20.897-20.859-20.897h-66.695c-11.513 0-20.848 9.351-20.848 20.897v66.89c0 11.54 9.335 20.897 20.848 20.897h66.706c11.513 0 20.854-9.341 20.854-20.897v-66.89h-0.005z" />
<glyph unicode="&#xe60c;" d="M431.239 705.387h-140.494c-24.251 0-43.907-19.711-43.907-44.021v-140.868c0-24.311 19.656-44.021 43.907-44.021h140.494c24.251 0 43.907 19.711 43.907 44.021v140.868c-0.005 24.311-19.662 44.021-43.907 44.021zM416.627 556.067c0-11.54-9.335-20.897-20.854-20.897h-66.706c-11.519 0-20.848 9.357-20.848 20.897v66.89c0 11.54 9.335 20.897 20.848 20.897h66.706c11.513 0 20.848-9.351 20.854-20.897v-66.89z" />
<glyph unicode="&#xe60d;" d="M431.239 408.752h-140.494c-24.251 0-43.907-19.711-43.907-44.021v-140.868c0-24.305 19.656-44.021 43.907-44.021h140.494c24.251 0 43.907 19.716 43.907 44.021v140.868c-0.005 24.311-19.662 44.021-43.907 44.021zM416.627 258.072c0-11.546-9.335-20.897-20.854-20.897h-66.706c-11.519 0-20.848 9.357-20.848 20.897v66.89c0 11.54 9.335 20.897 20.848 20.897h66.706c11.513 0 20.848-9.351 20.854-20.897v-66.89z" />
<glyph unicode="&#xe60e;" d="M512 960c-282.77 0-512-229.23-512-512s229.23-512 512-512c282.77 0 512 229.23 512 512s-229.23 512-512 512zM475.147 223.863c0-24.305-19.656-44.021-43.907-44.021h-140.494c-24.251 0-43.907 19.716-43.907 44.021v140.868c0 24.311 19.656 44.021 43.907 44.021h140.494c24.246 0 43.902-19.711 43.907-44.021v-140.868zM475.147 520.498c0-24.311-19.656-44.021-43.907-44.021h-140.494c-24.251 0-43.907 19.711-43.907 44.021v140.868c0 24.311 19.656 44.021 43.907 44.021h140.494c24.246 0 43.902-19.711 43.907-44.021v-140.868zM783.095 223.863c0-24.305-19.64-44.021-43.907-44.021h-140.494c-24.251 0-43.907 19.716-43.907 44.021v140.868c0 24.311 19.662 44.021 43.907 44.021h140.494c24.256 0 43.907-19.711 43.907-44.021v-140.868zM783.095 520.498c0-24.311-19.64-44.021-43.907-44.021h-140.494c-24.251 0-43.907 19.711-43.907 44.021v140.868c0 24.311 19.662 44.021 43.907 44.021h140.494c24.256 0 43.907-30.547 43.907-54.857v-130.032zM699.208 345.86h-66.712c-11.513 0-20.848-9.368-20.848-20.897v-66.89c0-11.546 9.335-20.897 20.848-20.897h66.706c11.519 0 20.854 9.357 20.854 20.897v66.89c-0.005 11.557-9.335 20.897-20.848 20.897zM395.773 345.86h-66.706c-11.513 0-20.848-9.368-20.848-20.897v-66.89c0-11.546 9.33-20.897 20.848-20.897h66.706c11.519 0 20.854 9.357 20.854 20.897v66.89c-0.005 11.557-9.341 20.897-20.854 20.897zM699.208 643.855h-66.712c-11.513 0-20.848-9.357-20.848-20.897v-66.89c0-11.546 9.335-20.897 20.848-20.897h66.706c11.519 0 20.854 9.357 20.854 20.897v66.89c-0.005 11.557-9.335 20.897-20.848 20.897zM395.773 643.855h-66.706c-11.513 0-20.848-9.357-20.848-20.897v-66.89c0-11.54 9.33-20.897 20.848-20.897h66.706c11.519 0 20.854 9.357 20.854 20.897v66.89c-0.005 11.546-9.341 20.897-20.854 20.897z" />
<glyph unicode="&#xe60f;" d="M242.568 815.786c0 0-54.765 55.319-100.271 9.807-48.445-48.452 6.593-103.498 6.593-103.498l635.776-635.789c0 0 55.032-55.019 101.747-8.317 47.25 47.256-7.783 102.282-7.783 102.282l-636.063 635.515zM141.328 183.932c0 0-55.313-54.765-9.807-100.278 48.452-48.452 103.491 6.58 103.491 6.58l635.796 635.789c0 0 55.032 55.039 8.317 101.741-47.243 47.263-102.282-7.769-102.282-7.769l-635.515-636.063z" horiz-adv-x="1030" />
<glyph unicode="&#xe610;" d="M512 960c-282.77 0-512-229.23-512-512s229.23-512 512-512c282.77 0 512 229.23 512 512s-229.23 512-512 512zM161.077 84.832c-9.276 9.276-17.3 17.294-24.289 24.283-17.906 17.901-38.332 38.311-39.275 39.259 0.802-0.796 11.513-11.508 39.275-39.259 17.836-17.836 33.18-33.169 24.289-24.283zM446.751 272.652c33.359-33.348-33.353-100.027-66.706-66.69-22.658 22.647-195.411 195.329-216.806 216.714-21.195 21.184-1.68 58.39 24.441 71.734 53.476 53.454 180.874 180.798 195.698 195.622 33.353 33.342 100.065-33.337 66.712-66.685-16.996-16.98-118.426-118.367-177.103-177.017 60.297-60.27 160.692-160.633 173.766-173.679zM577.265 272.647c13.063 13.052 113.453 113.42 173.728 173.679-58.666 58.655-160.096 160.047-177.087 177.022-33.348 33.342 33.359 100.027 66.706 66.685 14.829-14.818 142.233-142.168 195.698-195.622 26.136-13.345 45.647-50.539 24.457-71.74-21.401-21.385-194.154-194.067-216.806-216.714-33.342-33.337-100.054 33.342-66.695 66.69zM857.429 84.838v0c0.146 0.152 0.287 0.287 0.439 0.439-0.152-0.157-0.293-0.287-0.439-0.439zM863.075 90.478c-1.327-1.322-2.693-2.687-4.074-4.069 1.159 1.159 2.525 2.525 4.074 4.069 2.492 2.498 5.423 5.429 8.631 8.625-2.742-2.731-5.618-5.624-8.631-8.625zM886.697 114.089c6.485 6.491 11.903 11.909 16.389 16.384-5.077-5.071-10.755-10.749-16.389-16.384zM904.409 131.801c5.169 5.169 9.612 9.606 12.608 12.597 1.1 1.1 2.021 2.026 2.687 2.693-0.639-0.645-1.522-1.522-2.687-2.693-2.676-2.671-6.767-6.762-12.608-12.597z" />
<glyph unicode="&#xe611;" d="M136.788 109.116c-27.762 27.751-38.473 38.462-39.275 39.259 0.943-0.948 21.369-21.358 39.275-39.259z" />
<glyph unicode="&#xe612;" d="M917.016 144.398c-2.996-2.991-7.439-7.428-12.608-12.597 5.841 5.835 9.931 9.926 12.608 12.597z" />
<glyph unicode="&#xe613;" d="M886.697 114.089c5.635 5.635 11.313 11.313 16.389 16.384-4.486-4.475-9.904-9.893-16.389-16.384z" />
<glyph unicode="&#xe614;" d="M917.016 144.398c1.165 1.17 2.048 2.048 2.687 2.693-0.666-0.666-1.587-1.593-2.687-2.693z" />
<glyph unicode="&#xe615;" d="M863.075 90.478c3.012 3.007 5.889 5.895 8.631 8.625-3.207-3.197-6.139-6.128-8.631-8.625z" />
<glyph unicode="&#xe616;" d="M863.075 90.478c-1.55-1.544-2.915-2.909-4.074-4.069 1.382 1.382 2.747 2.747 4.074 4.069z" />
<glyph unicode="&#xe617;" d="M136.788 109.116c6.989-6.989 15.013-15.013 24.289-24.283 8.891-8.886-6.453 6.447-24.289 24.283z" />
<glyph unicode="&#xe618;" d="M383.377 690.032c-14.824-14.824-142.222-142.168-195.698-195.622-26.12-13.345-45.636-50.55-24.441-71.734 21.396-21.385 194.148-194.067 216.806-216.714 33.353-33.337 100.065 33.337 66.706 66.69-13.074 13.047-113.469 113.415-173.766 173.679 58.677 58.65 160.107 160.037 177.103 177.017 33.353 33.348-33.359 100.027-66.712 66.685zM836.315 494.41c-53.465 53.454-180.869 180.804-195.698 195.622-33.342 33.342-100.059-33.342-66.706-66.685 16.991-16.975 118.41-118.367 177.087-177.022-60.275-60.264-160.665-160.627-173.728-173.679-33.359-33.342 33.353-100.027 66.706-66.69 22.658 22.647 195.4 195.329 216.812 216.714 21.174 21.201 1.669 58.395-24.473 71.74z" />
<glyph unicode="&#xe619;" d="M609.75 622.019c0 0-104.969 308.746-328.863 220.040-203.259-80.538-162.991-302.976-97.796-427.614 47.316-90.461 116.969-168.743 180.249-226.27s247.365-184.086 247.365-184.086 156.893 104.779 226.27 159.154c70.954 55.611 191.679 201.384 228.192 293.387 47.937 120.806 49.858 301.055-97.796 373.924-223.785 110.44-357.621-208.535-357.621-208.535z" horiz-adv-x="1231" />
<glyph unicode="&#xe61a;" d="M1024 448c0-282.77-229.23-512-512-512s-512 229.23-512 512c0 282.77 229.23 512 512 512s512-229.23 512-512z" />
<glyph unicode="&#xe61b;" d="M828.952 446.255c0-175.796-142.511-318.307-318.307-318.307s-318.307 142.511-318.307 318.307c0 175.796 142.511 318.307 318.307 318.307s318.307-142.511 318.307-318.307z" />
<glyph unicode="&#xe61c;" d="M177.654 756.917c0 0-28.091 2.814-49.163 2.814s-25.277 37.912-25.277 37.912 2.819 36.516 33.708 36.516c30.899 0 205.044 0 205.044 0l1.407 88.477c0 0 0 21.067 25.277 21.067 25.271 0 262.627 0 290.718 0s25.277-26.678 25.277-26.678l-1.407-82.865c0 0 175.547-1.407 213.475-1.407 37.918 0 32.295-36.516 32.295-36.516s1.407-36.511-28.091-36.511-50.564-1.412-50.564-1.412l-1.412-765.409c0 0-4.205-29.492-30.899-29.492-26.678 0-592.671 1.407-613.737 1.407-21.072 0-26.678 28.085-26.678 28.085v764.013h0.027zM774.535 756.917h-519.638v-723.286h519.638v723.286zM347.584 122.113c0 0 5.622-19.649 22.479-19.649 16.862 0 25.277 16.862 25.277 16.862v532.263c0 0-5.617 22.468-23.881 22.468-18.247 0-23.881-21.067-23.881-21.067l0.005-530.877zM492.243 123.525c0 0 5.622-19.66 22.479-19.66 16.862 0 25.277 16.862 25.277 16.862v532.263c0 0-5.617 22.474-23.881 22.474-18.258 0-23.881-21.067-23.881-21.067l0.005-530.872zM631.284 123.525c0 0 5.617-19.66 22.479-19.66s25.271 16.862 25.271 16.862v532.263c0 0-5.617 22.474-23.881 22.474-18.253 0-23.881-21.067-23.881-21.067l0.011-530.872zM634.098 893.144h-240.159v-60.392h240.159v60.392z" />
<glyph unicode="&#xe61d;" d="M511.957 960c-282.746 0-511.951-229.228-511.951-512s229.206-512 511.951-512 511.951 229.228 511.951 512-229.206 512-511.951 512zM347.576 438.714c0 0-143.906 116.667-149.468 121.615-15.188 13.544 6.020 17.295 6.020 17.295l565.545 122.924c0 0 25.66 7.179 5.050-9.308 0 0-380.296-249.966-396.351-257.312-17.090-7.842-30.796 4.786-30.796 4.786zM792.552 657.884l-310.83-488.157c0.005-0.005-10.628-18.734-18.297 0.119-2.808 6.888-58.988 178.043-58.988 178.043s-7.297 17.16 5.788 30.613c12.315 12.671 375.246 287.246 375.246 287.246 22.447 13.905 7.082-7.863 7.082-7.863z" />
<glyph unicode="&#xe61e;" d="M769.668 700.553l-565.54-122.919c0 0-21.219-3.751-6.020-17.295 5.562-4.948 149.468-121.62 149.468-121.62s13.706-12.633 30.79-4.791c16.055 7.351 396.351 257.318 396.351 257.318 20.61 16.487-5.050 9.308-5.050 9.308zM785.481 665.759c0 0-362.931-274.586-375.246-287.257-13.091-13.452-5.788-30.607-5.788-30.607s56.186-171.155 58.988-178.049c7.669-18.853 18.303-0.119 18.297-0.113l310.83 488.157c-0.011-0.005 15.355 21.763-7.082 7.869z" />
<glyph unicode="&#xe61f;" d="M1024 442.575c0-282.77-229.23-512-512-512s-512 229.23-512 512c0 282.77 229.23 512 512 512s512-229.23 512-512z" />
<glyph unicode="&#xe620;" d="M429.89 594.61c0 0 104.147-27.63 137.034-24.527 21.679 2.040 55.212 78.936 64.212 110.842s21.267 68.303 82.218 102.666c41.031 23.138 81.394-0.407 92.033-8.181 10.639-7.769 35.578-29.453 28.634-80.987-6.814-50.557-55.299-87.513-71.997-96.942-18.82-10.628-112.909-63.404-112.078-87.123 0.819-23.73 42.533-138.266 42.533-138.266l-207.616-245.538c0 0-28.064-32.16-62.178-5.23s-167.003 143.127-196.858 170.475-5.441 61.256-5.441 61.256l209.504 241.555z" />
<glyph unicode="&#xe621;" d="M389.804 507.085l41.725 50.714 224.976-190.613-44.996-51.534z" />
<glyph unicode="&#xe622;" d="M781.674 699.739c0-23.721-19.23-42.951-42.951-42.951s-42.951 19.23-42.951 42.951c0 23.721 19.23 42.951 42.951 42.951s42.951-19.23 42.951-42.951z" />
<glyph unicode="&#xe623;" d="M274.649 348.313c0 0-17.095-25.894-0.749-40.754s129.412-112.073 153.245-131.625c23.827-19.547 46.884 4.866 46.884 4.866l35.909 40.927c0 0 16.368 36.815 0.808 43.369-15.538 6.537-73.614-31.911-73.614-31.911s-13.91-13.905-26.996-6.548c-13.096 7.367 3.271 40.087 3.271 44.996 0 4.904 16.357 42.544 7.357 51.544s-25.357 5.729-32.714 2.441c-7.373-3.271-27.001-9.82-34.368-5.724-7.357 4.101-10.628 22.091-7.357 40.911 3.271 18.809-12.353 26.827-22.173 26.827s-36.62-22.379-50.183-38.654l0.678-0.667z" />
<glyph unicode="&#xe624;" d="M392.81 19.415l1.885 285.425-342.796 428.948c0 0-76.242 68.641 38.598 121.217 79.422 36.36 208.43 73.24 407.471 71.355 199.030-1.875 409.584-13.767 486.33-116.416 29.886-39.969-15.013-82.619-15.013-82.619l-339.865-422.489 1.885-287.289c0 0-22.533-54.456-123.931-54.456-101.419-0.005-114.563 56.325-114.563 56.325zM521.498 691.436c381.54 0 386.882 87.305 386.882 87.305s4.177 80.457-383.886 80.457c-390.718 0-386.454-85.599-386.454-85.599s7.266-82.164 383.458-82.164z" />
<glyph unicode="&#xe625;" d="M265.704 386.69l235.569-64.008c0 0 25.925-16.758 48.025 15.999 0.926 0 242.423 276.507 242.423 276.507s22.875 31.993 0 38.852c-22.875 6.859-304.177 70.84-304.177 70.84s-13.718 10.283-34.301-13.708c-20.588-23.996-235.569-260.519-235.569-260.519s-38.879-44.558-38.879-111.974c0-67.416 61.749-95.985 61.749-95.985l281.297-86.834c0 0 22.875-11.427 38.885 9.146s230.991 283.366 230.991 283.366 9.146 9.714 4.573 20.567c-4.573 10.852-9.146 34.849-4.573 41.133 4.573 6.279 8.013 34.849-11.427 36.561s-46.318-16.568-32.020-79.986c-0.563 0-217.272-265.081-217.272-265.081s-242.997 67.98-274.443 82.283c-31.446 14.282-29.729 63.986-29.729 63.986s-2.855 49.119 38.879 38.852zM430.362 603.767c12.196 15.235 20.583 22.853 20.583 22.853s11.437 6.859 25.161 4.573c0 0 144.075-35.807 166.95-41.139 22.869-5.331 25.161-11.427 15.999-22.853-9.151-11.421-18.297-20.567-18.297-20.567s-4.589-9.899-34.307-2.286c-29.723 7.618-166.945 41.139-166.945 41.139s-21.341 3.045-9.146 18.28z" />
<glyph unicode="&#xe626;" d="M512 960c-282.77 0-512-229.23-512-512s229.23-512 512-512c282.77 0 512 229.23 512 512s-229.23 512-512 512zM226.824 347.827c0 0-1.718-49.705 29.729-63.986 31.446-14.298 274.443-82.278 274.443-82.278s216.703 265.075 217.272 265.075c-14.298 63.418 12.581 81.698 32.020 79.986s15.999-30.281 11.427-36.561c-4.578-6.285 0-30.281 4.573-41.133s-4.573-20.567-4.573-20.567-214.98-262.789-230.991-283.361c-16.010-20.578-38.885-9.146-38.885-9.146l-281.297 86.829c0 0-61.749 28.564-61.749 95.991 0 67.405 38.879 111.974 38.879 111.974s214.98 236.522 235.569 260.519c20.583 23.991 34.301 13.708 34.301 13.708s281.302-63.981 304.177-70.84 0-38.852 0-38.852-241.496-276.507-242.423-276.507c-22.1-32.763-48.025-15.999-48.025-15.999l-235.569 63.997c-41.735 10.283-38.879-38.847-38.879-38.847zM439.507 585.487c0 0 137.221-33.521 166.945-41.139 29.718-7.612 34.307 2.286 34.307 2.286s9.146 9.146 18.297 20.567c9.151 11.427 6.87 17.522-15.999 22.853-22.886 5.331-166.95 41.139-166.95 41.139-13.724 2.286-25.161-4.573-25.161-4.573s-8.387-7.618-20.583-22.853 9.146-18.28 9.146-18.28z" />
<glyph unicode="&#xe627;" d="M512 960c-282.771 0-512-229.229-512-512s229.229-512 512-512c282.766 0 512 229.229 512 512s-229.234 512-512 512zM689.849 195.622c-37.806 0-326.16 0-361.875 0-54.261 0-60.078 112.515 0 112.515 37.817 0 332.473 0 361.875 0 55.694 0 55.694-112.515 0-112.515zM689.729 398.385c-37.926 0-327.163 0-362.986 0-54.43 0-60.258 112.852 0 112.852 37.937 0 333.492 0 362.986 0 55.857 0 55.857-112.852 0-112.852zM689.724 580.085c-37.981 0-327.533 0-363.389 0-53.809 0-60.176 110.151-2.25 112.929 0.741 0.033 1.487 0.049 2.25 0.049 37.975 0 333.846 0 363.389 0 55.906 0 55.906-112.978 0-112.978z" />
<glyph unicode="&#xe628;" d="M320.452 693.101c0 0 323.677-0.076 369.272-0.038s41.962-57.153 41.962-57.153 1.819-53.558-34.495-54.468-341.335-1.814-374.016-1.814-39.941 52.654-39.941 52.654-1.814 60.819 37.218 60.819zM284.144 451.628c0 0 7.261-52.654 39.941-52.654s337.702 0.904 374.016 1.814 34.495 54.468 34.495 54.468 3.633 57.191-41.962 57.153-369.272 0.038-369.272 0.038c-39.037 0-37.218-60.819-37.218-60.819zM283.234 247.367c0 0 7.261-52.654 39.941-52.654s337.702 0.904 374.016 1.819c36.319 0.904 34.5 54.468 34.5 54.468s3.628 57.191-41.968 57.148c-45.595-0.033-369.266 0.044-369.266 0.044-39.037 0-37.223-60.825-37.223-60.825z" />
<glyph unicode="&#xe629;" d="M1024 448c0-282.77-229.23-512-512-512s-512 229.23-512 512c0 282.77 229.23 512 512 512s512-229.23 512-512z" />
<glyph unicode="&#xe62a;" d="M291.629 153.733l220.191-62.113 226.677 60.483 51.812 622.61-550.491 1.635 51.812-622.616zM695.406 673.014l-6.982-84.568-253.046-1.76 1.75-63.421 242.57 1.76-19.196-288.375-143.095-42.279-143.1 42.279-8.726 141.078 80.274 1.766 5.238-52.406 66.315-21.137 68.054 22.903 5.238 92.913h-228.612l-20.946 251.236 354.265 0.011z" />
<glyph unicode="&#xe62b;" d="M512 960c-282.77 0-512-229.23-512-512s229.23-512 512-512 512 229.23 512 512-229.23 512-512 512zM789.611 383.983c-5.186-14.849-12.679-36.305-12.679-36.305s-0.553-3.499-12.76-25.449c-12.196-21.966-32.329-12.798-32.329-12.798l-34.162 14.029-36.598-39.034 17.697-36.598c0 0 7.926-21.972-3.049-26.838-10.964-4.872-49.418-26.225-70.158-32.931s-31.108 1.221-31.108 1.221l-20.746 39.039-55.494-1.834-10.042-34.092c0 0-1.763-20.968-39.718-7.72-37.96 13.248-56.167 18.413-68.585 26.562-12.055 7.904-6.711 28.672-6.711 28.672l8.539 28.059-37.895 35.931-23.8-15.131c0 0-22.46-11.295-34.276 13.21-11.821 24.484-30.576 66.22-30.576 66.22s-7.221 23.491 9.44 28.797 28.965 15.804 28.965 15.804l-4.34 58.283-32.811 12.071c0 0-16.124 6.857-6.331 34.922 9.782 28.021 22.845 65.422 22.845 65.422s9.999 16.265 24.853 11.078c14.86-5.208 36.142-11.415 36.142-11.415l37.086 42.604-15.939 32.106c0 0-11.566 16.389 8.474 26.057s45.251 25.851 71.829 36.012c32.052 12.266 45.43-44.866 45.43-44.866l51.778-0.174 15.147 41.616c0 0 6.092 13.916 26.469 8.659 20.388-5.273 64.364-22.482 80.873-28.238 16.503-5.762-7.465-58.489-7.465-58.489l36.506-38.665 35.974 16.444c0 0 18.033 10.981 32.665-10.78 14.605-21.771 28.352-54.946 34.786-68.314 6.445-13.351-12.375-28.384-12.375-28.384l-37.542-22.683 2.675-45.365c0 0 31.531-12.25 46.38-17.431 14.843-5.181 8.121-24.435 2.935-39.284z" />
<glyph unicode="&#xe62c;" d="M516.714 573.256c-67.093 0-121.486-54.387-121.486-121.486 0-67.093 54.393-121.486 121.486-121.486s121.486 54.393 121.486 121.486c0 67.098-54.393 121.486-121.486 121.486zM518.895 390.656c-32.828 0-59.444 26.605-59.444 59.427s26.61 59.433 59.444 59.433c32.817 0 59.433-26.61 59.433-59.433 0.005-32.822-26.616-59.427-59.433-59.427z" />
<glyph unicode="&#xe62d;" d="M786.665 423.267c-14.849 5.181-46.38 17.431-46.38 17.431l-2.675 45.365 37.542 22.683c0 0 18.82 15.033 12.375 28.384-6.445 13.368-20.176 46.542-34.786 68.314-14.621 21.76-32.659 10.78-32.659 10.78l-35.974-16.444-36.506 38.665c0 0 23.968 52.727 7.465 58.489-16.509 5.756-60.48 22.965-80.873 28.238-20.377 5.257-26.469-8.659-26.469-8.659l-15.147-41.616-51.778 0.174c0 0-13.378 57.132-45.43 44.866-26.578-10.161-51.789-26.345-71.829-36.012s-8.474-26.057-8.474-26.057l15.939-32.106-37.086-42.604c0 0-21.283 6.206-36.142 11.415-14.854 5.186-24.853-11.078-24.853-11.078s-13.064-37.401-22.856-65.455c-9.792-28.064 6.331-34.922 6.331-34.922l32.811-12.071 4.34-58.283c0 0-12.304-10.509-28.965-15.804-16.661-5.306-9.44-28.797-9.44-28.797s18.755-41.736 30.576-66.22c11.816-24.5 34.276-13.205 34.276-13.205l23.8 15.131 37.895-35.931-8.539-28.059c0 0-5.344-20.768 6.711-28.672 12.418-8.149 30.625-13.308 68.585-26.562 37.954-13.243 39.718 7.72 39.718 7.72l10.042 34.092 55.494 1.834 20.746-39.034c0 0 10.367-7.937 31.108-1.226 20.735 6.7 59.183 28.059 70.158 32.925 10.975 4.872 3.049 26.838 3.049 26.838l-17.697 36.598 36.598 39.039 34.162-14.029c0 0 20.133-9.158 32.329 12.803 12.207 21.956 12.76 25.444 12.76 25.444s7.492 21.457 12.679 36.305c5.192 14.86 11.925 34.13-2.93 39.311zM516.714 330.285c-67.093 0-121.486 54.393-121.486 121.486 0 67.098 54.393 121.486 121.486 121.486s121.486-54.387 121.486-121.486c0-67.093-54.393-121.486-121.486-121.486zM518.895 509.516c32.822 0 59.433-26.61 59.433-59.433s-26.61-59.427-59.433-59.427c-32.828 0-59.438 26.605-59.438 59.427 0.005 32.822 26.616 59.433 59.438 59.433z" />
<glyph unicode="&#xe62e;" d="M271.026 618.929c-60.587-1.001-70.683-45.256-70.683-45.256l-111.073-576.965c0 0 878.446-3.774 922.201-3.774 43.761 0 53.851 37.715 53.851 37.715l111.067 588.286c0.006-0.006-851.523 0.892-905.363-0.006zM254.188 675.495c77.408 0 821.235 0 821.235 0s10.148 90.507-63.941 90.507c-63.947 0-518.316 0-518.316 0v101.822c0 0-1.68 49.019-43.755 49.019h-238.966c-60.587 0-57.222-45.256-57.222-45.256s-0.132-101.811 0-101.811c-88.384 1.467-87.51-61.053-87.51-61.053v-595.109l84.139 456.297c0-0.006 26.923 105.585 104.336 105.585z" horiz-adv-x="1231" />
<glyph unicode="&#xe62f;" d="M331.421 24.872c23.487 3.915 39.576 9.789 48.281 17.618 13.050 11.744 19.573 32.836 19.573 63.286v392.767c0 27.199-4.568 45.732-13.703 55.601-9.136 9.863-27.189 17.207-54.151 22.037v31.97h256.411v-507.596c0-29.149 4.345-47.851 13.050-56.11 8.695-8.27 25.012-14.792 48.934-19.573v-31.97h-318.395v31.97zM420.476 885.767c20.226 20.226 44.693 30.337 73.402 30.337 28.268 0 52.517-10.111 72.748-30.337 20.221-20.226 30.337-44.693 30.337-73.402s-10.115-53.176-30.337-73.402c-20.231-20.226-44.48-30.337-72.748-30.337-28.708 0-53.176 10.111-73.402 30.337s-30.337 44.693-30.337 73.402 10.111 53.176 30.337 73.402z" horiz-adv-x="991" />
<glyph unicode="&#xe630;" d="M512 960c-282.771 0-512-229.229-512-512s229.229-512 512-512c282.766 0 512 229.229 512 512s-229.234 512-512 512zM541.271 742.411c31.76 40.176 92.078 55.247 92.078 55.247s-5.169-57.638-25.959-91.239c-28.449-46.042-94.573-58.597-94.573-58.597s-0.556 57.872 28.454 94.589zM675.203 191.608c-59.414-41.009-87.051-17.577-109.65-14.222-22.593 3.361-30.981 17.588-45.203 16.733-14.233-0.828-50.23-10.044-64.458-17.577s-49.381-20.088-96.261 16.743-92.078 136.443-99.611 178.285c-7.533 41.864-12.555 73.652-5.861 130.571 6.7 56.925 66.969 116.355 83.707 125.56 16.743 9.211 46.042 24.276 98.778 15.905s83.707-21.755 83.707-21.755 73.657 39.348 133.926 25.954c60.263-13.399 90.417-66.13 90.417-66.13s-67.807-66.969-51.903-137.281c15.905-70.318 67.796-108.397 67.796-108.397s-25.949-103.37-85.384-144.389z" />
<glyph unicode="&#xe631;" d="M607.395 706.418c20.785 33.601 25.959 91.239 25.959 91.239s-60.313-15.071-92.073-55.247c-29.010-36.717-28.454-94.589-28.454-94.589s66.113 12.555 94.567 58.597zM692.785 444.405c-15.905 70.313 51.903 137.281 51.903 137.281s-30.148 52.731-90.422 66.13c-60.258 13.394-133.926-25.954-133.926-25.954s-30.971 13.383-83.707 21.755-82.034-6.694-98.778-15.905c-16.738-9.205-77.007-68.635-83.707-125.56-6.694-56.919-1.672-88.718 5.861-130.571s52.731-141.465 99.611-178.29c46.881-36.82 82.034-24.271 96.261-16.738s50.225 16.738 64.458 17.582c14.216 0.839 22.599-13.372 45.203-16.733 22.588-3.35 50.241-26.787 109.65 14.216 59.436 41.020 85.39 144.4 85.39 144.4s-51.892 38.068-67.796 108.386z" />
<glyph unicode="&#xe632;" d="M512 960c-282.77 0-512-229.23-512-512s229.23-512 512-512c282.77 0 512 229.23 512 512s-229.23 512-512 512zM568.607 672.077c8.555 9.156 2.227 34.935 4.882 41.215 3.115 7.385 34.838-17.744 34.22-27.475-0.601-9.736-22.609-48.659-34.22-59.538-11.622-10.874-1.354-32.21 0-32.053 4.882 0.563 14.065-15.463 0.011-13.74 0 0-40.965 17.17-39.134 41.215 1.848 24.045 25.687 41.22 34.242 50.376zM434.745 641.308c2.704 35.434 37.839 60.746 50.452 74.248 12.618 13.496 3.294 51.493 7.211 60.752 4.611 10.874 51.352-26.163 50.452-40.505s-33.326-71.718-50.452-87.75c-17.121-16.032-1.999-47.483 0-47.25 7.206 0.845 20.718-22.783-0.005-20.247 0 0-60.362 25.313-57.658 60.752zM509.979 158.333c-142.434 0-257.896 23.807-257.896 53.178 0 19.017 48.475 35.694 121.303 45.089-40.83 19.299-40.841 85.718-40.841 85.718v194.658c0 0 0 15.783 15.105 15.783h329.181c18.253 0 15.105-21.043 15.1-21.043v-194.647c0 0 0.114-62.643-43.008-80.766 71.512-9.454 118.952-25.974 118.952-44.791 0-29.371-115.463-53.178-257.896-53.178z" />
<glyph unicode="&#xe633;" d="M648.918 256.301c43.122 18.123 43.008 80.766 43.008 80.766v194.647c0.005 0 3.153 21.043-15.1 21.043h-329.175c-15.105 0-15.105-15.783-15.105-15.783v-194.647c0 0 0.011-66.425 40.841-85.718-72.829-9.389-121.303-26.071-121.303-45.094 0-29.376 115.468-53.172 257.896-53.172 142.434 0 257.896 23.812 257.896 53.172 0 18.811-47.44 35.331-118.957 44.785zM492.403 580.557c20.724-2.536 7.211 21.092 0.005 20.247-1.999-0.233-17.121 31.218 0 47.25 17.115 16.032 49.553 73.408 50.452 87.75s-45.831 51.379-50.452 40.505c-3.917-9.259 5.407-47.256-7.211-60.752-12.613-13.502-47.749-38.814-50.452-74.248-2.704-35.439 57.658-60.752 57.658-60.752zM573.505 580.486c14.054-1.718 4.876 14.314-0.011 13.74-1.354-0.157-11.616 21.179 0 32.053 11.627 10.879 33.619 49.802 34.225 59.538 0.607 9.731-31.105 34.859-34.225 27.475-2.655-6.279 3.673-32.058-4.876-41.215-8.555-9.156-32.394-26.331-34.231-50.376-1.842-24.045 39.118-41.215 39.118-41.215z" />
<glyph unicode="&#xe634;" d="M981.878 530.396c-40.4 206.827-176.748 289.452-176.748 289.452s-63.208 50.897-105.834-2.86c-43.506-54.873 39.462-114.42 39.462-114.42s151.537-91.949 118.722-303.822c-32.803-211.879-201.301-326.728-357.843-329.268-156.531-2.511-323.782 126.806-353.816 327.031-33.844 214.528 131.457 300.339 131.457 300.339s77.819 49.587 21.567 122.046c-40.045 39.090-95.262 2.735-95.262 2.735-191.027-146.291-261.895-385.4-150.804-609.041 111.085-223.658 379.548-338.833 628.657-242.147 249.104 96.68 340.83 353.124 300.442 559.957zM493.934 334.449c58.065 0 66.315 55.497 66.315 55.497v519.609c0 0-15.824 50.445-71.36 50.445-55.548 0-66.32-52.968-66.32-52.968l-2.517-517.086c0 0.006 15.812-55.497 73.883-55.497z" horiz-adv-x="991" />
<glyph unicode="&#xe635;" d="M938.119 390.27c0 0-27.75 18.848-49.858 0-49.827-42.474-113.557-102.478-113.557-102.478s-25.896-31.482-58.162 0c-51.388 50.107-124.623 105.24-124.623 105.24s-29.056 30.643-58.162 2.762c-81.925-78.441-289.145-270.477-376.656-358.007-34.375-34.356 2.768-38.754 2.768-38.754h1143.814c0 0 37.871 3.683 2.768 38.754-105.115 105.146-368.333 352.483-368.333 352.483zM708.237 397.853c22.158-19.383 52.663-17.256 71.997 0 101.134 90.248 531.76 473.591 531.76 473.591s26.307 33.237-19.396 33.237h-1118.876c-45.696 0-19.39-30.468-19.39-30.468s527.853-453.561 553.905-476.359zM453.486 444.246c0 0 33.865 31.712-2.768 60.937-86.547 69.030-258.732 248.12-340.701 319.171-33.622 29.156-38.767-2.768-38.767-2.768v-745.013c0 0 4.734-32.453 36.005 0 105.856 109.905 346.231 367.673 346.231 367.673zM1349.28 74.501c31.271-32.453 36.005 0 36.005 0v745.013c0 0-5.144 31.924-38.76 2.768-81.975-71.051-254.154-250.142-340.707-319.171-36.639-29.218-2.762-60.937-2.762-60.937s240.375-257.768 346.225-367.673z" horiz-adv-x="1497" />
<glyph unicode="&#xe636;" d="M512 960c-282.77 0-512-229.23-512-512s229.23-512 512-512c282.77 0 512 229.23 512 512s-229.23 512-512 512zM655.983 301.162h-169.854c2.53 0.991 5.028 2.010 7.509 3.056-9.335-1.788-15.17-2.373-15.17-2.373s-20.87 120.729-65.336 211.291c-29.452-22.761-107.097-94.008-112.31-215.836-1.289-2.579-135.114 0-135.114 0s46.801 263.927 185.572 298.304c-1.365 0.975-2.742 1.913-4.129 2.807l177.564 3.863c0 0 81.866-58.027 96.050-200.151 73.36 89.76 96.966 196.288 96.966 196.288s135.114 1.284 135.114 0c-47.597-244.487-196.863-297.247-196.863-297.247z" />
<glyph unicode="&#xe637;" d="M717.748 598.409c0 0-23.606-106.523-96.966-196.288-14.184 142.125-96.050 200.151-96.050 200.151l-177.564-3.863c1.387-0.894 2.763-1.826 4.129-2.807-138.771-34.372-185.572-298.304-185.572-298.304s133.824-2.579 135.114 0c5.207 121.829 82.857 193.086 112.31 215.836 44.465-90.545 65.336-211.291 65.336-211.291s5.835 0.574 15.17 2.373c-2.481-1.046-4.974-2.075-7.509-3.056h169.854c0 0 149.266 52.75 196.879 297.236-0.022 1.295-135.13 0.011-135.13 0.011z" />
<glyph unicode="&#xe638;" d="M895.396 901.134c-162.845 133.703-344.715-2.166-344.715-2.166l-542.007-537.681c0 0-19.515-28.178 0-49.859 19.509-21.675 49.865 10.84 49.865 10.84l511.657 505.143c0 0 164.771 145.256 301.353 8.674 136.587-136.582 13.006-297.021 13.006-297.021l-498.635-494.308c0 0-130.743-101.917-216.802 2.155-93.221 112.741 8.674 205.967 8.674 205.967l468.296 470.467c0 0 67.208 52.036 108.398 10.84 39.089-39.089 0-99.729 0-99.729l-383.739-381.578c0 0-39.122-34.578-15.178-58.534 32.521-32.532 60.705 15.167 60.705 15.167l388.076 388.076c0 0 84.541 91.055-15.178 184.281-79.588 74.397-177.777-6.503-177.777-6.503l-494.325-489.949c0 0-125.747-143.091-2.166-275.346 158.078-169.168 327.371 4.343 327.371 4.343l496.469 498.645c0 0 162.611 218.968-43.351 388.076z" horiz-adv-x="1000" />
<glyph unicode="&#xe639;" d="M582.986 731.247c-2.519 0-120.046 1.994-126.060 0.591-47.174-10.988-110.321-130.812-133.656-166.907-37.65-58.227-40.18-101.956-47.798-149.878-19.987-125.654 28.753-225.594 80.999-252.901 62.106-32.459 140.088 28.992 140.088 28.992s-14.114 39.811-21.363 36.826c-26.31-21.965-77.060-11.101-92.843 0-49.439 34.773-46.237 164.978-19.754 186.233 30.243 24.273 77.634 19.619 77.732 19.608-1.707-19.526-21.358-42.623-21.358-42.623s26.359-33.765 47.776-36.859c29.859-4.275 85.718-42.114 118.166-42.114 151.926 0 151.823 185.555 151.823 185.555s0.103 233.477-153.752 233.477zM470.98 522.833c-13.989 0-25.329 11.318-25.329 25.28s11.34 25.28 25.329 25.28c13.989 0 25.329-11.318 25.329-25.28s-11.34-25.28-25.329-25.28z" />
<glyph unicode="&#xe63a;" d="M512 960c-282.77 0-512-229.23-512-512s229.23-512 512-512c282.77 0 512 229.23 512 512s-229.23 512-512 512zM584.915 312.214c-32.448 0-88.308 37.839-118.166 42.114-21.417 3.083-47.776 36.859-47.776 36.859s19.651 23.102 21.358 42.623c-0.098 0.011-47.489 4.665-77.732-19.608-26.483-21.255-29.685-151.46 19.754-186.233 15.783-11.101 66.533-21.965 92.843 0 7.249 2.985 21.363-36.826 21.363-36.826s-77.981-61.451-140.088-28.992c-52.246 27.307-100.986 127.241-80.999 252.901 7.618 47.922 10.148 91.651 47.798 149.878 23.335 36.095 86.482 155.919 133.656 166.907 6.014 1.403 123.541-0.591 126.060-0.591 153.855 0 153.757-233.488 153.757-233.488s0.098-185.544-151.828-185.544zM470.98 573.394c13.989 0 25.329-11.318 25.329-25.28s-11.34-25.28-25.329-25.28c-13.989 0-25.329 11.318-25.329 25.28s11.34 25.28 25.329 25.28z" />
<glyph unicode="&#xe63b;" d="M1024 448c0-282.77-229.23-512-512-512s-512 229.23-512 512c0 282.77 229.23 512 512 512s512-229.23 512-512z" />
<glyph unicode="&#xe63c;" d="M230.73 491.116c0 0-21.201 12.521-37.942-1.122-16.742-13.626-6.697-36.826-6.697-36.826l138.381-141.735c0 0 26.776-10.045 39.064 3.354 12.277 13.382 6.702 39.058 6.702 39.058l-139.508 137.27zM504.816 763.435c0 0-21.201 12.51-37.931-1.127-16.747-13.621-6.697-36.826-6.697-36.826l138.375-141.724c0 0 26.776-10.040 39.069 3.354 12.272 13.388 6.691 39.053 6.691 39.053l-139.508 137.27zM239.887 506.877l206.23 204.090 140.635-141.729-74.779-77.006 286.807-270.065c0 0 22.328-34.588-5.575-62.497-30.113-30.135-64.707-4.47-64.707-4.47l-265.617 284.585-78.149-74.779-144.845 141.87z" />
<glyph unicode="&#xe63d;" d="M219.386 853.031c0 0 0.853 66.861 83.571 66.861 82.719-0.011 352.354 2.081 431.215 2.081s77.302-77.297 77.302-77.297l1.57-874.132-286.975 275.779-308.775-275.79 2.091 882.498z" />
<glyph unicode="&#xe63e;" d="M512 960c-282.771 0-512-229.229-512-512s229.229-512 512-512c282.771 0 512 229.229 512 512s-229.229 512-512 512zM281.711 649.997c161.624 5.34 386.1 48.962 453.439 73.005 0-1.005 8.605-105.735-4.493-129.111-49.418-29.107-346.807-71.126-448.947-68.122v124.227zM730.663 241.25c-49.424-29.101-346.813-71.131-448.952-68.127v124.222c161.624 5.335 386.1 48.967 453.445 73.011 0-1 8.605-105.725-4.493-129.105zM730.663 421.577c-49.424-29.107-346.813-71.131-448.952-68.122v124.227c161.624 5.34 386.1 48.962 453.445 73.011 0-1.005 8.605-105.741-4.493-129.116z" />
<glyph unicode="&#xe63f;" d="M281.711 477.682v-124.227c102.139-3.010 399.528 39.015 448.952 68.122 13.097 23.381 4.493 128.111 4.493 129.116-67.345-24.049-291.821-67.671-453.445-73.011zM281.711 297.35v-124.222c102.139-3.004 399.528 39.032 448.952 68.127 13.097 23.386 4.493 128.106 4.493 129.122-67.345-24.065-291.821-67.687-453.445-73.027zM730.658 593.891c13.097 23.375 4.493 128.106 4.493 129.111-67.34-24.044-291.816-67.665-453.439-73.005v-124.227c102.139-3.004 399.528 39.015 448.947 68.122z" />
<glyph unicode="&#xe640;" d="M871.788 889.19c-27.324 16.592-258.005 187.501-498.496-70.465-151.997-176.038-24.562-404.381-24.562-404.381s-282.086-291.947-315.552-325.379c-33.444-33.41 98.871-178.183 139.158-139.984 32.227 30.545 331.974 327.44 331.974 327.44s275.531-163.952 477.382 154.952c4.681 5.797 7.166 12.108 7.953 18.726 25.156 64.968 89.604 285.205-117.857 439.092zM658.718 401.772c-179.259 0-198.126 186.805-198.126 186.805s9.431 209.447 198.126 209.447c198.126 0 198.126-211.321 198.126-211.321l0.006-0.006c0-0.006-0.006-0.006-0.006-0.006-2.666-11.689-24.534-184.919-198.126-184.919z" horiz-adv-x="1059" />
<glyph unicode="&#xe641;" d="M334.742 438.254c0-68.435-55.477-123.912-123.912-123.912s-123.912 55.477-123.912 123.912c0 68.435 55.477 123.912 123.912 123.912s123.912-55.477 123.912-123.912zM899.996 825.223c0-68.435-55.477-123.912-123.912-123.912s-123.912 55.477-123.912 123.912c0 68.435 55.477 123.912 123.912 123.912s123.912-55.477 123.912-123.912zM897.763 89.557c0-68.437-55.475-123.912-123.918-123.912-66.856 0-121.348 52.949-123.82 119.202-0.060 1.565-0.098 3.124-0.098 4.704 0 68.437 55.459 123.918 123.918 123.918 68.442 0 123.918-55.481 123.918-123.912zM157.777 477.128c0 0-52.797-34.908-23.712-78.427 30.964-46.316 83.588-11.158 83.588-11.158l543.98 363.675c0 0 52.618 35.18 22.756 79.829-30.198 45.181-82.811 10.006-82.811 10.006l-543.801-363.925zM221.488 474.070c0 0-54.302 32.513-80.969-12.522-28.384-47.951 26.075-80.203 26.075-80.203l563.113-333.292c0 0 54.459-32.241 81.822 13.988 27.694 46.756-26.776 78.997-26.776 78.997l-563.265 333.031z" />
<glyph unicode="&#xe642;" d="M512 960c-282.77 0-512-229.23-512-512s229.23-512 512-512 512 229.23 512 512-229.23 512-512 512zM680.858 175.602c-112.984-2.55-375.015 0-375.015 0s-96.693 5.642-66.561 92.266c26.898 77.309 128.278 304.672 128.278 304.672s-40.016 2.034-41.638 43.727c-1.031 26.518 0.266 70.202 0.266 70.202s3.385 40.689 46.114 40.689c35.746 0 227.868 0 261.764 0 50.183 0 44.953-42.148 44.953-42.148s-0.939-40.445-0.939-74.39c0-38.085-45.197-37.656-45.197-37.656l127.117-294.733c0 0 46.092-99.801-79.142-102.628zM631.072 430.808h-257.044c-28.092-74.656-55.255-146.224-59.362-154.823-8.924-18.652 2.425-31.629 18.652-33.251 16.21-1.617 318.691-0.803 343.831 1.622s12.977 37.298 12.977 37.298l-59.053 149.154zM424.080 329.292c-14.192 0-25.699 11.507-25.699 25.694 0 14.198 11.507 25.694 25.699 25.694s25.699-11.496 25.699-25.694c0-14.187-11.507-25.694-25.699-25.694zM567.863 281.626c-25.156 0-45.55 20.393-45.55 45.555 0 25.156 20.404 45.55 45.55 45.55 25.167 0 45.55-20.399 45.55-45.55 0-25.162-20.382-45.555-45.55-45.555zM388.442 620.748c-0.808-7.313 10.541-10.541 10.541-10.541l41.975-0.678c0 0-25.070-67.245-52.912-141.423h228.264l-55.939 141.282c0 0 38.578-0.673 45.881 0.141 7.313 0.814 11.811 8.561 13.438 13.433 1.611 4.866-0.114 27.592-0.114 35.708 0 8.111-1.649 16.275-11.577 16.275-10.579 0-196.809-0.109-207.399-0.060-12.207 0.060-12.793-15.711-12.793-15.711s1.449-31.13 0.635-38.426z" />
<glyph unicode="&#xe643;" d="M632.884 572.963c0 0 45.197-0.429 45.197 37.656 0 33.945 0.939 74.39 0.939 74.39s5.23 42.148-44.953 42.148c-33.896 0-226.018 0-261.764 0-42.729 0-46.114-40.689-46.114-40.689s-1.297-43.683-0.266-70.202c1.622-41.692 41.638-43.727 41.638-43.727s-101.38-227.363-128.278-304.672c-30.131-86.624 66.561-92.266 66.561-92.266s262.030-2.55 375.015 0c125.235 2.827 79.142 102.628 79.142 102.628l-127.117 294.733zM400.605 674.886c10.579-0.049 196.809 0.060 207.399 0.060 9.928 0 11.577-8.165 11.577-16.275 0-8.116 1.72-30.842 0.114-35.708-1.628-4.872-6.125-12.619-13.438-13.433-7.302-0.814-45.881-0.141-45.881-0.141l55.939-141.282h-228.275c27.847 74.178 52.912 141.423 52.912 141.423l-41.975 0.678c0 0-11.349 3.228-10.541 10.541 0.814 7.297-0.629 38.426-0.629 38.426s0.591 15.771 12.798 15.711zM677.147 244.356c-25.146-2.425-327.631-3.239-343.831-1.622-16.227 1.622-27.576 14.599-18.652 33.251 4.107 8.599 31.271 80.168 59.362 154.823h257.044l59.053-149.154c0 0 12.163-34.873-12.977-37.298zM424.080 380.69c14.192 0 25.699-11.501 25.699-25.699 0-14.187-11.507-25.694-25.699-25.694s-25.699 11.507-25.699 25.694c0 14.198 11.507 25.699 25.699 25.699zM567.863 372.737c25.162 0 45.55-20.399 45.55-45.55 0-25.167-20.393-45.555-45.55-45.555s-45.55 20.393-45.55 45.555c-0.005 25.151 20.393 45.55 45.55 45.55z" />
<glyph unicode="&#xe644;" d="M120.225 557.874c0 0-54.772 55.319-100.278 9.807-48.445-48.452 6.593-103.498 6.593-103.498l301.762-301.782c0 0 55.032-55.005 101.741-8.31 47.256 47.256-7.776 102.282-7.776 102.282l-302.042 301.501zM343.961 254.469c0 0-55.313-54.765-9.807-100.284 48.445-48.445 103.491 6.58 103.491 6.58l568.986 568.986c0 0 55.032 55.039 8.324 101.741-47.243 47.263-102.288-7.769-102.288-7.769l-568.706-569.253z" horiz-adv-x="1030" />
<glyph unicode="&#xe645;" d="M1243.958 834.064c-2.607-1.162-73.885-35.764-140.531-36.435-1.298 0.213 91.093 53.551 106.698 140.531-3.153-4.625-107.325-61.825-161.351-67.661 3.829 1.233-113.772 154.391-307.091 57.254-193.302-97.137-124.905-286.266-124.905-286.266s-533.806 264.111-533.501 262.845c-109.371-217.405 75.472-338.317 75.472-338.317s-111.994 30.79-111.907 28.63c9.103-214.825 202.989-255.040 202.989-255.040s-109.922-0.475-109.3-2.607c56.196-191.797 236.817-176.961 236.817-176.961s-377.196-110.407-377.348-109.3c584.385-316.554 929.067 122.314 929.067 122.314s200.649 192.446 189.975 525.69c2.607 2.193 123.988 96.52 124.916 135.322z" horiz-adv-x="1244" />
<glyph unicode="&#xe646;" d="M377.189 355.402c0 0 22.234 33.89 9.532 69.446-13.617 38.127-77.617 133.446-74.893 209.701s-4.085 175.659 81.702 228.765 216.509 31.319 261.445-21.787 66.505-85.307 50.383-250.552c-5.447-55.829-44.936-129.361-62.638-164.765-14.728-29.456-1.362-74.893 34.042-93.957s194.722-76.255 209.701-84.425 85.787-46.298 87.148-93.957 0-129.361 0-129.361 2.723-10.894-20.425-12.255-882.378-1.362-882.378-1.362-17.702-4.085-17.702 14.979 2.723 144.34 2.723 144.34 13.617 55.829 88.51 81.702 155.233 38.127 232.85 103.489z" horiz-adv-x="1039" />
<glyph unicode="&#xe647;" d="M669.525 730.767c-73.567 0-217.958 2.862-306.239 2.862-78.477 0-77.642-109.429-77.642-109.429s0-213.84 0-224.964 0-59.333 63.753-59.333v-103.856c0 0 0-79.113 80.945-79.113h166.741c85.823 0 88.281 79.113 88.281 79.113s-1.735 103.856 0 103.856c63.898 0 63.753 61.807 63.753 61.807v222.491c-0.027 0-0.981 106.567-79.593 106.567zM482.196 430.549c-34.806-23.682-98.828-34.822-141.982 29.244-43.154 64.055 25.056 121.151 25.056 121.151l154.507-54.305c0 0-2.786-72.435-37.581-96.090zM711.984 459.787c-43.132-64.065-107.198-52.92-141.993-29.249-34.816 23.676-37.603 96.101-37.603 96.101l154.507 54.31c0.011 0 68.221-57.097 25.088-121.162z" />
<glyph unicode="&#xe648;" d="M511.957 960c-282.746 0-511.951-229.228-511.951-512s229.206-512 511.951-512 511.951 229.228 511.951 512-229.206 512-511.951 512zM749.107 401.709c0 0 0.146-61.807-63.753-61.807-1.735 0 0-103.856 0-103.856s-2.458-79.113-88.281-79.113h-166.741c-80.945 0-80.945 79.113-80.945 79.113v103.856c-63.742 0-63.742 48.215-63.742 59.333s0 224.964 0 224.964-0.825 109.429 77.642 109.429c88.281 0 232.671-2.862 306.239-2.862 78.612 0 79.566-106.567 79.582-106.567v-222.491zM340.214 459.792c43.154-64.065 107.176-52.925 141.982-29.244 34.795 23.655 37.592 96.090 37.592 96.090l-154.518 54.305c0 0-68.21-57.097-25.056-121.151zM686.906 580.949l-154.507-54.31c0 0 2.786-72.425 37.603-96.101 34.795-23.671 98.86-34.816 141.993 29.249s-25.088 121.162-25.088 121.162z" />
<glyph unicode="&#xe649;" d="M512 960c-282.77 0-512-229.23-512-512s229.23-512 512-512c282.77 0 512 229.23 512 512s-229.23 512-512 512zM321.829 696.138c0 0 67.996 31.316 110.045 26.841 42.060-4.475 94.836-12.526 112.743-37.579 1.788-0.894-59.040-190.562-59.040-190.562s-46.524 29.523-96.624 32.205c-50.106 2.682-120.783-18.79-120.794-18.784l53.671 187.88zM316.476 266.692c-50.106 2.687-120.783-18.79-120.783-18.79l53.681 187.885c0 0 67.99 31.311 110.045 26.835 42.049-4.47 94.836-12.521 112.721-37.568 1.793-0.899-59.045-190.578-59.045-190.578s-46.524 29.533-96.619 32.215zM697.599 183.494c0 0-68.89-36.674-126.147-29.523-57.236 7.163-107.341 40.277-107.341 40.277l59.034 195.931c0 0 42.054-37.59 99.312-40.272 57.246-2.687 128.824 21.461 128.824 21.471l-53.681-187.885zM772.741 446.521c0 0-68.89-36.68-126.147-29.528-57.246 7.163-107.352 40.266-107.352 40.266l59.051 195.931c0 0 42.060-37.579 99.306-40.261 57.257-2.682 128.834 21.471 128.824 21.471l-53.681-187.88z" />
<glyph unicode="&#xe64a;" d="M622.457 349.907c-57.257 2.676-99.312 40.272-99.312 40.272l-59.040-195.942c0 0 50.1-33.104 107.341-40.272 57.252-7.146 126.142 29.523 126.142 29.523l53.681 187.885c0.011-0.011-71.566-24.159-128.813-21.466zM697.599 612.929c-57.246 2.682-99.306 40.261-99.306 40.261l-59.056-195.931c0 0 50.106-33.098 107.347-40.266 57.257-7.152 126.147 29.528 126.147 29.528l53.681 187.88c0.022 0-71.555-24.153-128.813-21.471zM359.419 462.623c-42.054 4.475-110.045-26.835-110.045-26.835l-53.681-187.885c0 0 70.678 21.477 120.783 18.79 50.095-2.682 96.619-32.205 96.619-32.205s60.839 189.673 59.045 190.572c-17.885 25.042-70.672 33.093-112.721 37.563zM388.941 527.043c50.1-2.682 96.624-32.205 96.624-32.205s60.839 189.668 59.045 190.562c-17.912 25.053-70.678 33.104-112.748 37.579-42.044 4.475-110.039-26.841-110.039-26.841l-53.681-187.88c0.016-0.005 70.694 21.466 120.799 18.784z" />
<glyph unicode="&#xe64b;" d="M517.418 954.579c-282.771 0-511.997-229.226-511.997-511.997s229.226-511.997 511.986-511.997c282.771 0 511.997 229.226 511.997 511.997 0.011 282.771-229.216 511.997-511.986 511.997zM517.418 121.375c-177.395 0-321.201 143.795-321.201 321.201 0 177.395 143.806 321.201 321.201 321.201 177.406 0 321.201-143.806 321.201-321.201s-143.806-321.201-321.201-321.201z" />
<glyph unicode="&#xe64c;" d="M517.418 763.777c-177.395 0-321.201-143.806-321.201-321.201 0-177.406 143.806-321.201 321.201-321.201 177.406 0 321.201 143.795 321.201 321.201 0 177.395-143.806 321.201-321.201 321.201zM711.755 590.372c-13-8.321-28.992-16.854-48.091-24.558-0.228 0.932-0.439 1.859-0.672 2.792-7.546 30.169-31.714 70.041-53.658 101.966 41.103-16.914 76.47-44.871 102.421-80.2zM758.295 448.29c0-38.024-8.864-73.955-24.579-105.896-17.239 7.367-38.056 16.063-60.098 24.812 0.141 0.759 0.304 1.518 0.439 2.277 9.682 54.146 7.611 104.405-1.583 155.299 23.164 9.178 45.049 18.334 62.896 25.978 14.686-31.079 22.926-65.807 22.926-102.47zM518.015 208.010c-9.557 0-18.968 0.618-28.233 1.702-30.418 34.945-66.295 83.713-78.763 130.671 70.063 18.231 147.46 14.236 204.165 1.301-12.246-47.809-49.11-97.672-79.989-132.996-5.681-0.401-11.401-0.678-17.18-0.678zM277.735 448.29c0 34.348 7.259 66.978 20.242 96.534 13.759-7.969 31.703-16.632 54.656-24.33-8.441-48.823-10.154-97.174-1.128-149.048-20.633-7.237-37.823-15.678-51.69-23.766-14.138 30.613-22.080 64.674-22.080 100.61zM518.015 688.57c5.004 0 9.959-0.206 14.881-0.51 34.31-37.086 69.32-90.197 81.685-133.289 0.369-1.306 0.705-2.597 1.063-3.903-56.862-13.043-134.704-17.114-205.054 1.306 0.244 0.867 0.461 1.724 0.71 2.597 12.257 42.767 46.8 95.352 80.84 132.389 8.506 0.916 17.131 1.409 25.875 1.409zM401.808 385.183c-7.59 46.643-7.324 85.366-1.269 122.371 84.374-19.055 155.629-18.632 224.646 0.916 6.213-37.503 6.516-76.725-1.274-124.122-68.274 19.088-138.813 19.473-222.103 0.835zM412.059 663.964c-20.66-30.689-42.138-67.244-49.175-95.368-0.054-0.228-0.108-0.45-0.157-0.678-17.337 6.473-31.177 12.252-42.144 17.255 23.213 33.432 54.683 60.679 91.476 78.79zM323.196 307.715c11.005 5.193 24.303 10.913 40.236 16.979 10.278-30.982 24.807-61.714 40.431-87.876-31.952 17.283-59.502 41.629-80.666 70.897zM617.617 229.64c17.635 28.217 34.272 62.614 45.532 97.201 18.334-7.351 33.768-15.477 46.497-23.468-23.929-31.616-55.545-57.095-92.029-73.733z" />
<glyph unicode="&#xe64d;" d="M410.595 552.18c70.361-18.421 148.192-14.35 205.054-1.306-0.358 1.301-0.694 2.597-1.063 3.903-12.366 43.092-47.375 96.203-81.685 133.289-4.922 0.304-9.877 0.51-14.881 0.51-8.744 0-17.369-0.499-25.864-1.409-34.045-37.037-68.588-89.627-80.851-132.389-0.255-0.867-0.472-1.729-0.71-2.597z" />
<glyph unicode="&#xe64e;" d="M625.179 508.464c-69.011-19.538-140.271-19.971-224.646-0.916-6.050-37.005-6.321-75.733 1.269-122.371 83.285 18.638 153.83 18.253 222.098-0.835 7.806 47.391 7.503 86.619 1.279 124.122z" />
<glyph unicode="&#xe64f;" d="M674.056 369.483c-0.136-0.759-0.298-1.518-0.439-2.277 22.042-8.75 42.859-17.445 60.098-24.812 15.716 31.952 24.579 67.878 24.579 105.896 0 36.663-8.246 71.385-22.926 102.47-17.846-7.644-39.721-16.8-62.896-25.978 9.194-50.893 11.265-101.153 1.583-155.299z" />
<glyph unicode="&#xe650;" d="M663.149 326.841c-11.26-34.587-27.897-68.984-45.532-97.201 36.484 16.637 68.1 42.117 92.045 73.733-12.745 7.98-28.179 16.106-46.513 23.468z" />
<glyph unicode="&#xe651;" d="M352.633 520.494c-22.953 7.698-40.897 16.366-54.656 24.33-12.989-29.551-20.242-62.186-20.242-96.534 0-35.937 7.942-69.997 22.086-100.616 13.878 8.088 31.058 16.529 51.69 23.766-9.032 51.88-7.319 100.231 1.122 149.054z" />
<glyph unicode="&#xe652;" d="M411.018 340.383c12.463-46.947 48.34-95.715 78.763-130.671 9.265-1.084 18.676-1.702 28.233-1.702 5.779 0 11.498 0.276 17.18 0.678 30.879 35.335 67.742 85.187 79.989 132.996-56.705 12.935-134.108 16.93-204.165-1.301z" />
<glyph unicode="&#xe653;" d="M363.437 324.689c-15.927-6.066-29.231-11.786-40.236-16.979 21.153-29.263 48.703-53.62 80.666-70.897-15.624 26.173-30.152 56.9-40.431 87.876z" />
<glyph unicode="&#xe654;" d="M362.721 567.929c0.060 0.228 0.108 0.45 0.157 0.678 7.037 28.125 28.52 64.679 49.175 95.368-36.799-18.117-68.263-45.364-91.481-78.79 10.972-5.009 24.812-10.788 42.149-17.255z" />
<glyph unicode="&#xe655;" d="M662.992 568.606c0.233-0.932 0.445-1.859 0.672-2.792 19.099 7.698 35.091 16.236 48.091 24.558-25.951 35.329-61.324 63.286-102.432 80.189 21.956-31.93 46.123-71.792 53.669-101.955z" />
</font>
</defs>
</svg>
