<?xml version="1.0" encoding="utf-8"?>
<!-- Generator: Adobe Illustrator 16.0.0, SVG Export Plug-In . SVG Version: 6.00 Build 0)  -->
<!DOCTYPE svg PUBLIC "-//W3C//DTD SVG 1.1//EN" "http://www.w3.org/Graphics/SVG/1.1/DTD/svg11.dtd">
<svg version="1.1" id="Layer_1" xmlns="http://www.w3.org/2000/svg" xmlns:xlink="http://www.w3.org/1999/xlink" x="0px" y="0px"
	 width="500px" height="500px" viewBox="0 0 500 500" enable-background="new 0 0 500 500" xml:space="preserve">
<g>
	<defs>
		<circle id="SVGID_1_" cx="250.5" cy="250" r="185.5"/>
	</defs>
	<clipPath id="SVGID_2_">
		<use xlink:href="#SVGID_1_"  overflow="visible"/>
	</clipPath>
	<circle clip-path="url(#SVGID_2_)" fill="#8BAF40" cx="250.5" cy="250" r="185.5"/>
	<g clip-path="url(#SVGID_2_)">
		<path fill="#FFFFFF" d="M220.251,174.325c8.449-5.441,18.834-8.164,31.152-8.164c16.184,0,29.63,3.867,40.337,11.602
			c10.705,7.734,16.06,19.193,16.06,34.375c0,9.311-2.321,17.152-6.964,23.525c-2.714,3.867-7.928,8.809-15.642,14.824l-7.605,5.908
			c-4.144,3.223-6.894,6.982-8.249,11.279c-0.858,2.723-1.323,6.947-1.394,12.676h-29.111c0.428-12.102,1.571-20.464,3.428-25.083
			s6.64-9.937,14.351-15.952l7.82-6.123c2.569-1.934,4.641-4.045,6.212-6.338c2.854-3.938,4.283-8.271,4.283-12.998
			c0-5.441-1.59-10.401-4.769-14.878c-3.179-4.475-8.984-6.714-17.414-6.714c-8.288,0-14.166,2.758-17.631,8.271
			c-3.464,5.516-5.196,11.244-5.196,17.188h-31.045C199.733,197.313,206.858,182.849,220.251,174.325z M238.083,295.067h32.119
			v31.045h-32.119V295.067z"/>
	</g>
</g>
</svg>
