<?xml version="1.0" encoding="utf-8"?>
<!-- Generator: Adobe Illustrator 16.0.0, SVG Export Plug-In . SVG Version: 6.00 Build 0)  -->
<!DOCTYPE svg PUBLIC "-//W3C//DTD SVG 1.1//EN" "http://www.w3.org/Graphics/SVG/1.1/DTD/svg11.dtd">
<svg version="1.1" id="Layer_1" xmlns="http://www.w3.org/2000/svg" xmlns:xlink="http://www.w3.org/1999/xlink" x="0px" y="0px"
	 width="500px" height="500px" viewBox="0 0 500 500" enable-background="new 0 0 500 500" xml:space="preserve">
<g>
	<defs>
		<circle id="SVGID_1_" cx="249.5" cy="242" r="185.5"/>
	</defs>
	<clipPath id="SVGID_2_">
		<use xlink:href="#SVGID_1_"  overflow="visible"/>
	</clipPath>
	<circle clip-path="url(#SVGID_2_)" fill="#8BAF40" cx="249.5" cy="242" r="185.5"/>
	<path clip-path="url(#SVGID_2_)" fill="#FFFFFF" d="M318.607,239.434v22.816c0,14.848-5.293,27.562-15.863,38.137
		c-10.574,10.574-23.289,15.863-38.137,15.863h-40.5c-14.852,0-27.562-5.289-38.137-15.863
		c-10.578-10.574-15.863-23.289-15.863-38.137v-40.5c0-14.852,5.285-27.562,15.863-38.141
		c10.574-10.574,23.285-15.859,38.137-15.859h40.5c5.398,0,11.113,1.031,17.145,3.102l-24.027,23.898h-47.117
		c-3.691,0-6.863,1.328-9.52,3.98c-2.656,2.656-3.98,5.828-3.98,9.52v67.5c0,3.688,1.324,6.863,3.98,9.516
		c2.656,2.656,5.828,3.984,9.52,3.984h67.5c3.691,0,6.863-1.328,9.52-3.984c2.652-2.652,3.98-5.828,3.98-9.516v-9.316
		L318.607,239.434z M254.482,269.27l76.41-76.547l-18.359-18.496l-58.051,58.188l-19.848-19.848l-18.359,18.363L254.482,269.27z"/>
</g>
</svg>
