<?xml version="1.0" encoding="utf-8"?>
<!-- Generator: Adobe Illustrator 16.0.0, SVG Export Plug-In . SVG Version: 6.00 Build 0)  -->
<!DOCTYPE svg PUBLIC "-//W3C//DTD SVG 1.1//EN" "http://www.w3.org/Graphics/SVG/1.1/DTD/svg11.dtd">
<svg version="1.1" id="Layer_1" xmlns="http://www.w3.org/2000/svg" xmlns:xlink="http://www.w3.org/1999/xlink" x="0px" y="0px"
	 width="500px" height="500px" viewBox="0 0 500 500" enable-background="new 0 0 500 500" xml:space="preserve">
<g>
	<defs>
		<circle id="SVGID_1_" cx="250.5" cy="250" r="185.5"/>
	</defs>
	<clipPath id="SVGID_2_">
		<use xlink:href="#SVGID_1_"  overflow="visible"/>
	</clipPath>
	<circle clip-path="url(#SVGID_2_)" fill="#8BAF40" cx="250.5" cy="250" r="185.5"/>
	<path clip-path="url(#SVGID_2_)" fill="#FFFFFF" d="M277.002,200.928v-22.41c15.027,5.578,27.27,15.031,36.719,28.348
		c9.449,13.32,14.176,28.215,14.176,44.688c0,10.621-2.047,20.719-6.141,30.305c-4.098,9.586-9.633,17.867-16.609,24.84
		c-6.973,6.977-15.25,12.512-24.84,16.605c-9.582,4.098-19.688,6.145-30.305,6.145c-10.621,0-20.727-2.047-30.305-6.145
		c-9.59-4.094-17.871-9.629-24.844-16.605c-6.973-6.973-12.512-15.254-16.605-24.84c-4.098-9.586-6.145-19.684-6.145-30.305
		c0-16.473,4.73-31.367,14.176-44.688c9.449-13.316,21.691-22.77,36.723-28.348v22.41c-9.273,4.949-16.695,11.926-22.277,20.922
		c-5.582,9.004-8.371,18.902-8.371,29.703c0,15.93,5.625,29.52,16.875,40.77s24.844,16.875,40.773,16.875s29.516-5.625,40.77-16.875
		c11.25-11.25,16.875-24.84,16.875-40.77c0-10.801-2.793-20.699-8.371-29.703C293.693,212.854,286.268,205.877,277.002,200.928z
		 M263.502,231.303v-54c0-1.891-0.656-3.488-1.961-4.793c-1.301-1.305-2.902-1.957-4.789-1.957h-13.5
		c-1.891,0-3.488,0.652-4.793,1.957c-1.309,1.305-1.957,2.902-1.957,4.793v54c0,1.887,0.648,3.488,1.957,4.789
		c1.305,1.305,2.902,1.961,4.793,1.961h13.5c1.887,0,3.488-0.656,4.789-1.961C262.846,234.791,263.502,233.189,263.502,231.303z"/>
</g>
</svg>
