<?xml version="1.0" encoding="utf-8"?>
<!-- Generator: Adobe Illustrator 16.0.0, SVG Export Plug-In . SVG Version: 6.00 Build 0)  -->
<!DOCTYPE svg PUBLIC "-//W3C//DTD SVG 1.1//EN" "http://www.w3.org/Graphics/SVG/1.1/DTD/svg11.dtd">
<svg version="1.1" id="Layer_1" xmlns="http://www.w3.org/2000/svg" xmlns:xlink="http://www.w3.org/1999/xlink" x="0px" y="0px"
	 width="500px" height="500px" viewBox="0 0 500 500" enable-background="new 0 0 500 500" xml:space="preserve">
<g>
	<defs>
		<circle id="SVGID_1_" cx="250.5" cy="250" r="185.5"/>
	</defs>
	<clipPath id="SVGID_2_">
		<use xlink:href="#SVGID_1_"  overflow="visible"/>
	</clipPath>
	<circle clip-path="url(#SVGID_2_)" fill="#8BAF40" cx="250.5" cy="250" r="185.5"/>
	<path clip-path="url(#SVGID_2_)" fill="#FFFFFF" d="M250.564,169.338c10.891,0,21.309,2.137,31.254,6.406
		c9.945,4.281,18.516,10.012,25.719,17.219c7.199,7.199,12.938,15.766,17.211,25.715c4.273,9.941,6.414,20.41,6.414,31.387
		c0,14.582-3.602,28.055-10.801,40.43s-16.992,22.168-29.363,29.363c-12.375,7.199-25.852,10.805-40.434,10.805
		c-14.578,0-28.078-3.605-40.5-10.805c-12.418-7.195-22.23-16.988-29.43-29.363c-7.203-12.375-10.797-25.848-10.797-40.43
		c0-10.977,2.137-21.445,6.41-31.387c4.273-9.949,10.012-18.516,17.215-25.715c7.199-7.207,15.773-12.938,25.719-17.219
		C229.119,171.475,239.584,169.338,250.564,169.338z M253.803,182.021c-1.348,1.078-2.992,2.027-4.926,2.836
		s-3.488,1.355-4.656,1.617c-1.172,0.273-3.152,0.633-5.938,1.082c-2.789,0.457-4.547,0.723-5.266,0.809
		c-1.352,0.273-3.402,0.254-6.145-0.062c-2.746-0.316-4.793-0.203-6.141,0.336c-1.891,0.633-4.234,1.82-7.02,3.578
		c-2.789,1.758-4.32,3.305-4.594,4.656c-0.266,0.992,0.023,2.004,0.879,3.039c0.855,1.031,1.238,1.867,1.148,2.5
		c-0.273,3.055-1.508,7.125-3.715,12.215c-2.203,5.082-3.531,8.668-3.98,10.73c-0.719,2.973-0.473,7.137,0.742,12.492
		c1.215,5.352,1.551,9.289,1.012,11.812c0,0.805,0.766,2.785,2.293,5.938c1.531,3.148,2.25,5.848,2.164,8.098
		c1.082,0,2.113,0.254,3.105,0.746c0.988,0.492,2.023,1.168,3.102,2.023c1.082,0.859,1.98,1.465,2.703,1.816
		c2.16,1.082,7.02,2.973,14.578,5.68c1.98,0.719,4.363,2.137,7.152,4.246c2.793,2.117,5.473,3.848,8.035,5.203
		c2.566,1.344,5.148,1.844,7.766,1.484c0.715,1.617,0.043,4.094-2.027,7.426c-2.07,3.324-2.969,5.887-2.703,7.691
		c3.785,6.391,7.699,9.992,11.746,10.801c0,0.535-0.133,1.238-0.402,2.09c-0.27,0.855-0.426,1.516-0.477,1.961
		c-0.043,0.449,0.16,1.215,0.613,2.297c9.18,0.172,19.121-4.863,29.832-15.129c2.699-2.602,4.812-4.719,6.348-6.336
		c1.527-1.625,3.078-3.832,4.652-6.617c1.578-2.785,2.5-5.582,2.77-8.367c-1.262-0.816-2.926-1.238-4.992-1.285
		c-2.074-0.043-3.691-0.387-4.859-1.02c-1.262-0.621-3.469-1.301-6.617-2.02c-3.152-0.723-5.492-1.574-7.02-2.566
		c-0.809,0-2.59,0.027-5.332,0.07c-2.746,0.043-4.844,0.113-6.277,0.199c-1.441,0.09-3.195,0.391-5.266,0.883
		s-3.828,1.238-5.266,2.223c-4.5,3.152-7.469,3.691-8.91,1.625c-0.363-0.184-0.52-1.328-0.473-3.445
		c0.043-2.117,0.066-3.262,0.066-3.445c-0.539-1.168-1.73-1.934-3.578-2.293c-1.844-0.359-2.945-0.68-3.309-0.941
		c0.18-1.988,0.094-3.832-0.266-5.535c-0.363-1.715-1.105-2.973-2.23-3.781s-2.855,0.086-5.199,2.699
		c-2.066,2.25-3.957,2.074-5.668-0.547c-1.711-2.512-2.07-5.121-1.082-7.82c0.543-1.441,1.531-2.434,2.973-2.973
		c0.539,0.09,1.711,0.16,3.512,0.203c1.797,0.043,3.309,0.219,4.52,0.535c1.219,0.316,2.094,0.926,2.633,1.82
		c1.082,1.715,2.52,3.402,4.32,5.062c1.801,1.668,3.332,2.91,4.594,3.719l1.891,1.082c0-0.273,0.426-2.051,1.281-5.336
		c0.852-3.289,1.098-5.871,0.742-7.762c-0.363-2.074,0.289-4.07,1.957-6.012c1.664-1.934,2.676-3.348,3.035-4.254
		c0.449-1.258,0.902-2.832,1.352-4.719c0.449-1.891,0.832-3.289,1.148-4.184c0.312-0.906,1.012-1.918,2.094-3.043
		c1.074-1.125,2.605-2.09,4.586-2.898c-0.539-1.617-0.086-3.289,1.352-4.992c0.719,0,1.777,0.059,3.172,0.199
		c1.398,0.133,2.5,0.203,3.309,0.203s1.73-0.203,2.77-0.605c1.031-0.414,1.953-1.105,2.762-2.102c-0.898-2.066-2.27-3.98-4.117-5.73
		c-1.844-1.758-3.555-3.109-5.129-4.051c-1.57-0.949-3.777-2.137-6.613-3.578c-2.832-1.441-4.793-2.477-5.871-3.102
		c0.988-3.691,1.035-5.676,0.133-5.941c2.789,1.168,5.422,1.82,7.898,1.953c2.473,0.141,4.254-0.02,5.332-0.469l1.488-0.543
		c0.539-3.234-0.23-5.645-2.301-7.227c-2.07-1.574-4.949-2.855-8.637-3.84c-3.695-0.992-6.211-2.031-7.562-3.109
		C257.092,182.291,255.424,182.291,253.803,182.021z M251.916,196.467c0,1.617,0.359,3.535,1.078,5.742
		c0.723,2.203,1.465,4.184,2.23,5.941c0.762,1.746,1.191,2.812,1.281,3.172c-0.809-0.184-2.207-0.414-4.184-0.676
		c-1.98-0.273-3.602-0.492-4.859-0.68c-1.262-0.172-2.703-0.543-4.32-1.078c-1.621-0.539-2.969-1.172-4.051-1.891
		c0.27-1.082,0.988-2.426,2.156-4.051c1.168-1.617,1.895-2.742,2.164-3.375c0.895,0.902,1.73,1.352,2.496,1.352
		s1.398-0.27,1.891-0.809c0.496-0.543,1.148-1.195,1.957-1.961C250.564,197.393,251.287,196.83,251.916,196.467z"/>
</g>
</svg>
