<?xml version="1.0" encoding="utf-8"?>
<!-- Generator: Adobe Illustrator 16.0.0, SVG Export Plug-In . SVG Version: 6.00 Build 0)  -->
<!DOCTYPE svg PUBLIC "-//W3C//DTD SVG 1.1//EN" "http://www.w3.org/Graphics/SVG/1.1/DTD/svg11.dtd">
<svg version="1.1" id="Layer_1" xmlns="http://www.w3.org/2000/svg" xmlns:xlink="http://www.w3.org/1999/xlink" x="0px" y="0px"
	 width="500px" height="500px" viewBox="0 0 500 500" enable-background="new 0 0 500 500" xml:space="preserve">
<g>
	<defs>
		<circle id="SVGID_1_" cx="250.5" cy="250" r="185.5"/>
	</defs>
	<clipPath id="SVGID_2_">
		<use xlink:href="#SVGID_1_"  overflow="visible"/>
	</clipPath>
	<circle clip-path="url(#SVGID_2_)" fill="#8BAF40" cx="250.5" cy="250" r="185.5"/>
	<path clip-path="url(#SVGID_2_)" fill="#FFFFFF" d="M331.5,311.691V331h-162v-19.309l54-34.691v-13.5
		c-3.332,0-6.414-3.352-9.246-10.059C211.414,246.738,210,241.09,210,236.5v-27c0-11.16,3.957-20.699,11.883-28.621
		C229.801,172.961,239.336,169,250.5,169c11.156,0,20.699,3.961,28.617,11.879C287.035,188.801,291,198.34,291,209.5v27
		c0,4.59-1.418,10.238-4.254,16.941c-2.836,6.707-5.914,10.059-9.246,10.059V277L331.5,311.691z"/>
</g>
</svg>
