<?xml version="1.0" encoding="utf-8"?>
<!-- Generator: Adobe Illustrator 16.0.0, SVG Export Plug-In . SVG Version: 6.00 Build 0)  -->
<!DOCTYPE svg PUBLIC "-//W3C//DTD SVG 1.1//EN" "http://www.w3.org/Graphics/SVG/1.1/DTD/svg11.dtd">
<svg version="1.1" id="Layer_1" xmlns="http://www.w3.org/2000/svg" xmlns:xlink="http://www.w3.org/1999/xlink" x="0px" y="0px"
	 width="500px" height="500px" viewBox="0 0 500 500" enable-background="new 0 0 500 500" xml:space="preserve">
<g>
	<defs>
		<circle id="SVGID_1_" cx="249.5" cy="250" r="185.5"/>
	</defs>
	<clipPath id="SVGID_2_">
		<use xlink:href="#SVGID_1_"  overflow="visible"/>
	</clipPath>
	<circle clip-path="url(#SVGID_2_)" fill="#8BAF40" cx="249.5" cy="250" r="185.5"/>
	<path clip-path="url(#SVGID_2_)" fill="#FFFFFF" d="M182.094,287.527l30.105,30.102l-44.957,15.129L182.094,287.527z
		 M194.242,276.594l82.887-82.891l28.895,28.891l-82.895,82.891L194.242,276.594z M288.742,182.094L301.434,169
		c1.352-1.172,2.836-1.758,4.453-1.758s3.105,0.586,4.457,1.758L331,189.652c1.168,1.262,1.758,2.77,1.758,4.527
		c0,1.75-0.59,3.215-1.758,4.383l-13.371,12.422L288.742,182.094z"/>
</g>
</svg>
