<?xml version="1.0" encoding="utf-8"?>
<!-- Generator: Adobe Illustrator 16.0.0, SVG Export Plug-In . SVG Version: 6.00 Build 0)  -->
<!DOCTYPE svg PUBLIC "-//W3C//DTD SVG 1.1//EN" "http://www.w3.org/Graphics/SVG/1.1/DTD/svg11.dtd">
<svg version="1.1" xmlns="http://www.w3.org/2000/svg" xmlns:xlink="http://www.w3.org/1999/xlink" x="0px" y="0px" width="500px"
	 height="250px" viewBox="0 0 500 250" enable-background="new 0 0 500 250" xml:space="preserve">
<g id="Security_Innovation_Logo">
	<g>
		<path fill="#231F20" d="M262.969,114.139h5.914v29.485h-5.914V114.139z"/>
		<path fill="#231F20" d="M274.529,121.869h5.365v2.958h0.084c1.775-2.494,4.184-3.464,7.139-3.464c5.152,0,7.393,3.632,7.393,8.533
			v13.729h-5.66v-11.617c0-2.662-0.043-6.252-3.676-6.252c-4.096,0-4.984,4.438-4.984,7.225v10.645h-5.66V121.869z"/>
		<path fill="#231F20" d="M299.494,121.869h5.365v2.958h0.082c1.775-2.494,4.182-3.464,7.139-3.464c5.154,0,7.393,3.632,7.393,8.533
			v13.729h-5.66v-11.617c0-2.662-0.045-6.252-3.674-6.252c-4.098,0-4.984,4.438-4.984,7.225v10.645h-5.66V121.869z"/>
		<path fill="#231F20" d="M334.424,121.363c6.461,0,11.4,4.349,11.4,11.531c0,6.252-4.18,11.238-11.4,11.238
			c-7.182,0-11.363-4.986-11.363-11.238C323.061,125.712,328.004,121.363,334.424,121.363z M334.424,139.737
			c4.35,0,5.494-3.887,5.494-7.518c0-3.34-1.779-6.465-5.494-6.465c-3.676,0-5.449,3.211-5.449,6.465
			C328.975,135.808,330.115,139.737,334.424,139.737z"/>
		<path fill="#231F20" d="M347.006,121.869h6.082l5.406,15.839h0.084l5.234-15.839h5.662l-8.023,21.755h-6.381L347.006,121.869z"/>
		<path fill="#231F20" d="M373.021,123.009c2.197-1.012,5.152-1.646,7.562-1.646c6.631,0,9.375,2.746,9.375,9.166v2.791
			c0,2.193,0.043,3.84,0.086,5.447c0.045,1.646,0.127,3.168,0.256,4.857h-4.986c-0.211-1.141-0.211-2.578-0.25-3.252h-0.086
			c-1.312,2.406-4.141,3.76-6.717,3.76c-3.846,0-7.604-2.322-7.604-6.465c0-3.254,1.562-5.154,3.719-6.211
			c2.15-1.055,4.941-1.264,7.305-1.264h3.127c0-3.508-1.564-4.689-4.9-4.689c-2.406,0-4.814,0.93-6.717,2.365L373.021,123.009z
			 M379.654,139.991c1.732,0,3.086-0.762,3.973-1.947c0.926-1.223,1.182-2.783,1.182-4.475h-2.449c-2.537,0-6.295,0.424-6.295,3.76
			C376.064,139.188,377.629,139.991,379.654,139.991z"/>
		<path fill="#231F20" d="M396.551,126.011h-4.182v-4.142h4.182v-4.35l5.658-1.816v6.166h5.029v4.142h-5.029v10.137
			c0,1.859,0.51,3.59,2.664,3.59c1.01,0,1.984-0.213,2.574-0.592l0.17,4.479c-1.182,0.336-2.492,0.508-4.182,0.508
			c-4.436,0-6.885-2.748-6.885-7.055V126.011z"/>
		<path fill="#231F20" d="M411.24,121.869h5.658v21.755h-5.658V121.869z"/>
		<path fill="#231F20" d="M431.979,121.363c6.463,0,11.404,4.349,11.404,11.531c0,6.252-4.182,11.238-11.404,11.238
			c-7.182,0-11.365-4.986-11.365-11.238C420.613,125.712,425.559,121.363,431.979,121.363z M431.979,139.737
			c4.35,0,5.488-3.887,5.488-7.518c0-3.34-1.773-6.465-5.488-6.465c-3.674,0-5.449,3.211-5.449,6.465
			C426.529,135.808,427.672,139.737,431.979,139.737z"/>
		<path fill="#231F20" d="M446.973,121.869h5.363v2.958h0.088c1.773-2.494,4.18-3.464,7.139-3.464c5.152,0,7.391,3.632,7.391,8.533
			v13.729h-5.66v-11.617c0-2.662-0.043-6.252-3.676-6.252c-4.096,0-4.982,4.438-4.982,7.225v10.645h-5.662V121.869z"/>
		<g>
			<path fill="#217BBF" d="M72.602,141.716v-10.814h3.012c0.839,3.219,2.102,5.514,3.785,6.891c1.683,1.379,3.501,2.064,5.453,2.064
				c1.448,0,2.6-0.396,3.459-1.191c0.857-0.795,1.288-1.732,1.288-2.807c0-0.764-0.27-1.527-0.807-2.291
				c-0.54-0.766-1.819-1.613-3.839-2.551c-3.881-1.771-6.505-3.078-7.863-3.91c-1.362-0.832-2.453-1.902-3.279-3.209
				c-0.822-1.307-1.233-2.808-1.233-4.506c0-2.72,1.054-4.965,3.166-6.73c2.11-1.766,4.553-2.649,7.326-2.649
				c2.91,0,5.384,0.906,7.417,2.719c0.336-0.469,0.614-1.187,0.831-2.155h2.903v9.317h-2.829c-0.505-2.062-1.462-3.761-2.874-5.096
				c-1.411-1.333-2.998-1.999-4.763-1.999c-1.326,0-2.381,0.34-3.162,1.024c-0.78,0.685-1.173,1.539-1.173,2.567
				c0,0.79,0.252,1.525,0.755,2.202c0.503,0.676,1.18,1.234,2.034,1.679c0.855,0.441,2.668,1.263,5.44,2.461
				c2.487,1.09,4.328,2.062,5.521,2.92c1.193,0.854,2.137,1.93,2.836,3.23c0.697,1.301,1.046,2.705,1.046,4.213
				c0,2.801-1.118,5.133-3.354,6.992c-2.237,1.857-4.902,2.787-7.997,2.787c-1.766,0-3.494-0.336-5.183-1.012
				c-1.689-0.68-3.042-1.578-4.048-2.701c-0.389,0.695-0.674,1.549-0.857,2.555H72.602z"/>
			<path fill="#217BBF" d="M107.778,132.394c0,2.559,0.466,4.479,1.398,5.768c0.931,1.283,2.329,1.93,4.193,1.93
				c1.984,0,3.804-0.941,5.467-2.822l2.346,1.312c-0.958,1.279-2.332,2.338-4.122,3.174c-1.788,0.834-3.766,1.254-5.932,1.254
				c-3.326,0-6.173-0.938-8.542-2.818c-2.367-1.877-3.552-4.418-3.552-7.611c0-3.195,1.146-5.707,3.437-7.529
				c2.293-1.822,5.05-2.734,8.274-2.734c3.239,0,5.896,0.832,7.969,2.5c2.075,1.67,3.111,4.197,3.111,7.578H107.778z
				 M107.743,130.04h6.379c-0.102-3.447-1.185-5.174-3.252-5.174c-1.042,0-1.826,0.43-2.345,1.289
				C108.004,127.013,107.743,128.308,107.743,130.04z"/>
			<path fill="#217BBF" d="M143.419,136.341l2.579,1.051c-0.703,1.793-1.987,3.18-3.844,4.154c-1.856,0.977-4.021,1.463-6.489,1.463
				c-3.379,0-6.238-0.879-8.584-2.631c-2.343-1.754-3.515-4.174-3.515-7.264c0-3.24,1.278-5.852,3.833-7.834
				c2.556-1.975,5.867-2.965,9.938-2.965c2.521,0,4.519,0.428,5.988,1.281c1.472,0.857,2.208,1.986,2.208,3.389
				c0,0.795-0.29,1.488-0.871,2.09c-0.579,0.6-1.332,0.9-2.256,0.9c-1.832,0-3.003-1.109-3.506-3.318
				c-0.15-0.654-0.379-1.121-0.682-1.402c-0.302-0.279-0.824-0.422-1.563-0.422c-1.496,0-2.619,0.551-3.367,1.648
				c-0.747,1.1-1.122,2.748-1.122,4.945c0,3.006,0.449,5.17,1.348,6.488c0.897,1.318,2.303,1.975,4.217,1.975
				C140.349,139.89,142.243,138.708,143.419,136.341z"/>
			<path fill="#217BBF" d="M164.943,139.626c-1.096,1.119-2.275,1.963-3.545,2.531c-1.27,0.566-2.637,0.852-4.1,0.852
				c-1.866,0-3.563-0.482-5.085-1.447s-2.281-2.809-2.281-5.531v-7.33c0-1.197-0.206-2.014-0.616-2.449
				c-0.41-0.438-1.246-0.654-2.504-0.654v-2.486h11.252v12.504c0,1.217,0.203,2.09,0.609,2.619c0.4,0.529,1.043,0.795,1.92,0.795
				c0.656,0,1.349-0.248,2.072-0.744c0.726-0.504,1.484-1.246,2.277-2.24v-7.34c0-1.168-0.195-1.979-0.592-2.43
				c-0.395-0.453-1.318-0.678-2.774-0.678v-2.486h11.534v13.514c0,1.182,0.197,1.996,0.592,2.436
				c0.396,0.441,1.344,0.666,2.846,0.666v2.486c-0.455-0.016-0.866-0.023-1.235-0.023c-3.096,0-6.551,0.273-10.37,0.82V139.626z"/>
			<path fill="#217BBF" d="M187.005,127.122c0.975-1.602,2.081-2.805,3.326-3.605c1.243-0.801,2.61-1.201,4.106-1.201
				c1.428,0,2.508,0.414,3.248,1.246s1.11,1.734,1.11,2.715c0,0.918-0.294,1.703-0.883,2.354c-0.59,0.652-1.411,0.979-2.471,0.979
				c-0.57,0-1.041-0.1-1.412-0.303c-0.369-0.199-0.856-0.617-1.46-1.256c-0.606-0.617-1.262-0.928-1.967-0.928
				c-1.092,0-1.912,0.619-2.456,1.854c-0.548,1.238-0.818,3.094-0.818,5.568v2.076c0,1.15,0.192,1.957,0.578,2.416
				c0.389,0.461,1.279,0.689,2.678,0.689h0.505v2.486h-15.335v-2.486c1.467,0,2.396-0.225,2.784-0.68
				c0.389-0.447,0.582-1.258,0.582-2.422v-6.666c0-1.182-0.198-1.994-0.592-2.438c-0.396-0.439-1.332-0.662-2.812-0.662v-2.488
				l10.481-2.055C186.668,123.575,186.938,125.179,187.005,127.122z"/>
			<path fill="#217BBF" d="M212.658,122.315v14.305c0,1.182,0.203,1.996,0.608,2.439c0.402,0.441,1.349,0.666,2.831,0.666v2.486
				h-15.441v-2.486h0.577c1.437,0,2.341-0.234,2.72-0.701c0.381-0.467,0.573-1.27,0.573-2.406v-6.953
				c0-1.152-0.196-1.957-0.584-2.418c-0.387-0.461-1.29-0.689-2.709-0.689h-0.577v-2.488L212.658,122.315z M204.165,114.22
				c0-1.146,0.446-2.136,1.34-2.962c0.894-0.832,1.962-1.247,3.207-1.247c1.262,0,2.329,0.411,3.207,1.232
				c0.876,0.822,1.314,1.816,1.314,2.977c0,1.165-0.443,2.159-1.328,2.981c-0.883,0.823-1.949,1.231-3.193,1.231
				c-1.296,0-2.38-0.421-3.245-1.268C204.601,116.321,204.165,115.338,204.165,114.22z"/>
			<path fill="#217BBF" d="M226.176,125.63v9.98c0,1.666,0.115,2.771,0.352,3.309c0.234,0.537,0.722,0.807,1.459,0.807
				c1.107,0,1.997-0.641,2.665-1.924l2.475,0.77c-1.278,2.959-4.007,4.438-8.189,4.438c-2.304,0-4.034-0.52-5.193-1.553
				c-1.158-1.035-1.739-2.592-1.739-4.66V125.63h-3.01v-2.52l0.633,0.021c2.038,0,3.782-0.598,5.232-1.791
				c1.449-1.197,2.324-2.718,2.628-4.566h2.688v6.335h6.198v2.52H226.176z"/>
			<path fill="#217BBF" d="M250.639,123.11v2.486c1.428,0,2.143,0.398,2.143,1.189c0,0.311-0.299,1.055-0.891,2.234l-3.363,6.568
				l-4.376-7.379c-0.541-0.904-0.809-1.467-0.809-1.705c0-0.559,0.662-0.861,1.992-0.908v-2.486h-13.401v2.486
				c0.834,0.059,1.424,0.213,1.764,0.447c0.342,0.238,0.853,0.928,1.535,2.072l0.42,0.672l8.894,14.287
				c-0.824,1.67-1.572,2.789-2.251,3.35c-0.379,0.316-0.998,0.615-1.83,0.896c-0.61-0.352-1.331-0.564-2.105-0.564
				c-2.194,0-3.971,1.646-3.971,3.676c0,1.328,0.764,2.486,1.905,3.133c0.041,0.025,0.084,0.049,0.127,0.072
				c0.144,0.074,0.289,0.139,0.443,0.197c0.084,0.031,0.17,0.061,0.259,0.088c0.158,0.045,0.316,0.086,0.483,0.113
				c0.072,0.018,0.15,0.025,0.228,0.035c0.145,0.018,0.288,0.027,0.436,0.031c0.071,0.002,0.137,0.016,0.213,0.016
				c1.459,0,2.669-0.459,3.626-1.375c0.959-0.918,2.225-2.898,3.804-5.943l8.074-15.506c1.447-2.75,2.375-4.359,2.789-4.84
				c0.412-0.479,1.113-0.764,2.105-0.857v-2.486H250.639z"/>
		</g>
		<path fill="#217BBF" d="M22.743,99.321c1.598-5.925,7.9-9.38,14.075-7.715c6.177,1.668,9.889,7.82,8.29,13.746l-1.359,5.452
			l6.04,1.627l1.468-5.422c2.476-9.182-3.277-18.719-12.846-21.299c-9.572-2.581-19.339,2.771-21.581,11.395l-2.993,11.253
			l-3.585-0.968l-2.087,7.74l32.513,8.765l-4.303,15.953c-1.863,6.912-8.086,10.262-15.326,8.311
			c-7.242-1.951-10.933-7.98-9.068-14.891l3.081-11.931l-7.991-2.158L3.86,131.081c-2.887,10.709,3.867,21.848,15.088,24.871
			c11.221,3.023,22.659-3.203,25.547-13.914l4.37-16.916l0,0l1.841-6.822l-30.839-8.317L22.743,99.321z"/>
		<path fill="#231F20" d="M39.032,104.824c-0.75,2.782-3.615,4.432-6.395,3.68c-2.787-0.747-4.435-3.614-3.684-6.397
			c0.75-2.784,3.617-4.432,6.399-3.68C38.134,99.173,39.782,102.042,39.032,104.824z"/>
		<polygon fill="#231F20" points="26.921,143.884 18.355,141.573 23.482,122.894 32.048,125.204 		"/>
		<rect x="411.184" y="115.93" fill="#231F20" width="5.713" height="3.609"/>
		<g>
			<path fill="#231F20" d="M474.611,121.27c2.277,0,4.129,1.854,4.129,4.129c0,2.277-1.852,4.129-4.129,4.129
				c-2.273,0-4.127-1.852-4.127-4.129C470.484,123.124,472.338,121.27,474.611,121.27z M474.621,128.911
				c1.9,0,3.332-1.533,3.332-3.512s-1.432-3.512-3.332-3.512c-1.92,0-3.35,1.533-3.35,3.512S472.701,128.911,474.621,128.911z
				 M473.035,122.976h1.854c1.109,0,1.656,0.445,1.656,1.361c0,0.777-0.494,1.34-1.244,1.34l1.369,2.137h-0.832l-1.354-2.137h-0.66
				v2.137h-0.789V122.976z M473.824,125.056h0.938c0.607,0,0.996-0.125,0.996-0.754c0-0.549-0.494-0.709-0.996-0.709h-0.938V125.056
				z"/>
		</g>
	</g>
</g>
<g id="Team_Mentor_Logo">
	<linearGradient id="SVGID_1_" gradientUnits="userSpaceOnUse" x1="39.2241" y1="64.5156" x2="39.2241" y2="11.5002">
		<stop  offset="0" style="stop-color:#4A651E"/>
		<stop  offset="0.9786" style="stop-color:#8AAF40"/>
	</linearGradient>
	<path fill="url(#SVGID_1_)" d="M73.77,11.016H58.302c-1.183-1.979-2.826-3.663-4.839-4.915c-2.334-1.453-4.003-2.269-6.739-2.269
		c-5.118,0-10.903,2.639-13.604,6.979c-0.043,0.069-0.139,0.136-0.18,0.204H4.651c-0.639,15.61,2.278,28.12,6.659,37.976
		c0.246,0.554,0.073,1.743,0.327,2.278c0.503,1.061,0.455,1.453,1.474,2.494c1.432,1.463,2.273,3.33,3.424,4.869l-4.751,7.442
		c0,0-0.39,0.909-0.42,0.959c-0.298,0.479,0.291,0.31,0.838,1.058c0.481,0.656,1.241,1.326,2.139,1.885
		c1.152,0.717,1.935,0.621,2.824,0.621c0.753,0,1.751-0.143,1.773-0.203l0.016,0.01l3.122-5.019
		c9.089,10.138,17.131,14.91,17.131,14.91s14.643-7.087,24.891-25.302c0.38-0.678,1.645-1.395,2.013-2.104
		c0.787-1.512,0.776-1.441,1.297-2.546C72.154,40.276,74.441,27.401,73.77,11.016z"/>
	<linearGradient id="SVGID_2_" gradientUnits="userSpaceOnUse" x1="66.6069" y1="42.5947" x2="20.3508" y2="42.5947">
		<stop  offset="0" style="stop-color:#4A651E"/>
		<stop  offset="0.719" style="stop-color:#8AAF40;stop-opacity:0"/>
	</linearGradient>
	<path opacity="0.42" fill="url(#SVGID_2_)" d="M74.279,11.545H58.811c-1.183-1.979-2.826-3.662-4.839-4.914
		c-2.334-1.453-4.003-2.269-6.739-2.269c-5.118,0-10.903,2.638-13.604,6.979c-0.043,0.068-0.139,0.135-0.18,0.203H5.161
		C4.522,27.157,7.439,39.667,11.82,49.522c0.246,0.553,0.073,1.742,0.327,2.278c0.503,1.06,0.455,1.452,1.474,2.493
		c1.432,1.463,2.273,3.331,3.424,4.869l-4.606,7.4l0.005,0.004c-0.048,0.05-0.062,0.096-0.093,0.145
		c-0.298,0.479-0.187,1.162,0.361,1.91c0.481,0.657,1.241,1.327,2.139,1.885c1.152,0.717,2.37,1.145,3.259,1.145
		c0.753,0,1.098-0.3,1.255-0.553c0.035-0.055,0.061-0.113,0.083-0.174l0.016,0.01l3.122-5.018
		c9.089,10.137,17.131,14.91,17.131,14.91s14.643-7.088,24.891-25.303c0.38-0.677,1.645-1.395,2.013-2.104
		c0.787-1.511,0.776-1.441,1.297-2.545C72.663,40.805,74.951,27.93,74.279,11.545z"/>
	<path fill="#231F20" d="M4.18,10.232l-0.096,2.317c-0.482,11.77,1.134,21.766,3.895,30.176V56.45H7.979l-0.031,1.969
		c0,0,1.856,0.186,7.182-0.312c0.289,0.467,0.578,0.936,0.872,1.387l2.73-4.388c-0.234-0.392-0.469-0.789-0.7-1.192
		c-0.476-0.834-4.886-0.732-6.08-0.658c-1.128-1.773,0.146-13.284,0.087-13.476c-2.203-7.141-3.366-14.906-3.193-24.714h21.892
		c0.303-0.732,0.667-1.45,1.099-2.145c0.201-0.322,0.427-0.647,0.706-1.017c0.168-0.329,0.371-0.709,0.608-1.092
		c0.124-0.198,0.255-0.39,0.387-0.58H4.18z"/>
	<path fill="#231F20" d="M74.776,12.549l-0.096-2.317H57.722c0.997,1.448,1.732,3.077,2.163,4.833h10.13
		c0.149,8.439-0.822,15.852-2.507,22.327c-0.492,1.89-0.182,13.617-1.396,16.063c-0.739,0.7-4.683,1.021-5.271,0.434
		c-0.355,0.623-0.722,1.215-1.087,1.809c-1.174-0.23-3.634-1.271-5.818-2.119c-4.597-1.785-7.796-2.952-9.714-2.792
		c-2.163-0.191-4.01,1.585-5.189,3.156c-0.911-1.36-2.096-2.274-3.542-2.726c-4.272-1.338-9.097,2.111-9.301,2.258l1.623,2.243
		c1.079-0.776,4.415-2.627,6.858-1.856c1.303,0.41,2.254,1.513,2.907,3.372l1.076,3.06l1.466-2.895
		c1.64-3.934,4.294-3.848,4.294-3.848c1.326-0.198,5.482,1.43,8.52,2.608c2.27,0.882,3.989,1.537,5.292,1.904
		C50.93,68.809,42.41,74.251,39.427,75.93c-2.548-1.436-9.125-5.602-15.532-13.468l-2.579,4.146
		c8.462,9.931,16.883,14.146,17.058,14.231l1.053,0.51l1.052-0.51c0.215-0.104,12.969-6.497,22.88-22.138
		c1.6,0.299,6.612-0.176,6.669-0.547c0.019-0.12,0.025-0.316,0.026-0.529l0.01-0.001v-12.56
		C73.314,36.185,75.303,25.43,74.776,12.549z"/>
	<path fill="#FFFFFF" d="M59.366,23.848c-0.332,0.855-0.744,1.688-1.24,2.484c-0.193,0.311-0.413,0.627-0.703,1.014
		c-0.223,0.436-0.412,0.777-0.609,1.096c-2.701,4.34-7.37,6.93-12.487,6.93c-1.492,0-2.962-0.244-4.372-0.69v13.313
		c1.15-1.055,2.986-2.061,5.73-1.709c1.519,0.194,3.276,0.979,5.309,1.888c3.608,1.613,8.167,3.63,13.287,3.409V24.289
		C62.747,24.311,61.004,24.157,59.366,23.848z"/>
	<g>
		<path fill="#FFFFFF" d="M38.247,29.378v-7.967c-0.327-0.617-2.052-3.41-5.929-2.911c-0.104,0.014-0.214,0.037-0.323,0.058
			C32.134,22.841,34.352,26.933,38.247,29.378z"/>
		<path fill="#FFFFFF" d="M21.897,49.939l8.42-13.546l0.151-0.062c0.119-0.048,0.878-0.317,2.335,0.224l2.617-4.205
			c-3.941-3.01-5.986-7.729-5.742-12.454c-0.629,0.261-1.295,0.56-1.997,0.872c-3.711,1.658-8.396,3.752-13.722,3.521l0.162,26.9
			C16.669,51.271,19.479,50.705,21.897,49.939z"/>
	</g>
	<path fill="#FFFFFF" d="M53.174,6.566c-2.232-1.39-4.792-2.124-7.4-2.124c-4.807,0-9.177,2.414-11.69,6.457
		c-0.427,0.684-0.784,1.396-1.079,2.129c-0.002,0.002-0.004,0.006-0.006,0.008l0.002,0.002c-1.05,2.607-1.271,5.475-0.601,8.281
		c0.858,3.597,3.07,6.658,6.226,8.623c2.233,1.389,4.792,2.123,7.401,2.123c4.806,0,9.176-2.413,11.692-6.454
		C61.731,19.167,59.692,10.624,53.174,6.566z M46.027,31.417c-2.487,0-4.928-0.701-7.058-2.025
		c-3.011-1.875-5.119-4.795-5.938-8.223c-0.636-2.662-0.431-5.383,0.558-7.857c3.888-5.635,11.573-7.486,17.487-3.808
		c5.954,3.704,7.873,11.69,4.432,17.781l0.073,0.041C53.138,29.92,49.719,31.417,46.027,31.417z M57.168,25.267
		c-0.039,0.062-0.081,0.12-0.12,0.181c2.124-5.953-0.118-12.715-5.681-16.174c-5.348-3.329-12.04-2.585-16.402,1.471
		c2.436-3.549,6.43-5.652,10.809-5.652c2.487,0,4.927,0.701,7.057,2.025C59.045,10.986,60.991,19.127,57.168,25.267z"/>
	<path fill="#FFFFFF" d="M33.885,36.94l-0.662-0.283l3.426-5.395l0.078-0.042c0.036-0.02,0.869-0.455,2.007,0.249
		c0.372,0.232,0.638,0.5,0.825,0.754c0.37,0.5-0.186,0.658-0.221,0.58c-0.118-0.262-0.378-0.564-0.873-0.875
		c-0.63-0.389-1.19-0.314-1.35-0.142L33.885,36.94z"/>
	<linearGradient id="SVGID_3_" gradientUnits="userSpaceOnUse" x1="24.9258" y1="52.7378" x2="12.7586" y2="70.905">
		<stop  offset="0" style="stop-color:#FFFFFF"/>
		<stop  offset="0.6266" style="stop-color:#8AAF40"/>
	</linearGradient>
	<path fill="url(#SVGID_3_)" d="M36.829,40.417c-0.271-0.619-0.84-1.374-2.006-2.103c-2.469-1.533-2.688-3.299-2.812-3.287
		l-1.125,1.85L12.638,66.169c0,0,0.172-0.046,0.404-0.072v0.006c0.78-0.066,1.968,0.341,3.103,1.048
		c1.146,0.713,2.058,1.638,2.325,2.357l0.278-0.475c-0.406-0.748-1.277-1.59-2.364-2.267c-0.845-0.525-1.725-0.886-2.478-1.038
		C14.341,65.13,31.312,37.62,31.312,37.62c0.378,0.044,1.387,0.264,3.112,1.336c1.577,0.982,1.983,1.866,2.009,2.354
		C36.434,41.309,36.992,40.79,36.829,40.417z"/>
	<linearGradient id="SVGID_4_" gradientUnits="userSpaceOnUse" x1="42.3604" y1="16.2891" x2="49.1498" y2="23.0785">
		<stop  offset="0" style="stop-color:#001600"/>
		<stop  offset="0.9786" style="stop-color:#8AAF40"/>
	</linearGradient>
	<path fill="url(#SVGID_4_)" d="M44.597,35.424c-8.497,0-13.736-7.453-13.736-15.949c0-8.498,5.922-16.13,14.419-16.13
		s15.29,6.728,15.29,15.224C60.571,27.067,53.094,35.424,44.597,35.424z M44.464,7.733c-6.534,0-11.85,5.316-11.85,11.851
		s7.576,11.792,14.11,11.792c6.535,0,9.591-5.258,9.591-11.792S50.998,7.733,44.464,7.733z"/>
	<linearGradient id="SVGID_5_" gradientUnits="userSpaceOnUse" x1="45.7739" y1="19.7988" x2="41.3825" y2="12.3725">
		<stop  offset="0" style="stop-color:#001600"/>
		<stop  offset="0.9786" style="stop-color:#8AAF40"/>
	</linearGradient>
	<path fill="url(#SVGID_5_)" d="M45.104,35.549c-9.256,0-15.399-5.323-15.399-14.592c0-9.036,7.377-18.191,16.692-18.334
		c8.862-0.137,15.88,7.875,14.896,15.355C60.121,26.879,54.005,35.549,45.104,35.549z M47.053,3.477
		c-6.826,0-13.649,6.059-13.649,13.059c0,6.93,5.515,14.934,12.271,14.502c9.252-0.591,14.831-7.389,14.831-14.371
		C60.505,9.667,53.88,3.477,47.053,3.477z"/>
	<linearGradient id="SVGID_6_" gradientUnits="userSpaceOnUse" x1="47.2939" y1="13.4629" x2="49.4189" y2="-8.0371">
		<stop  offset="0" style="stop-color:#FFFFFF"/>
		<stop  offset="0.6266" style="stop-color:#8AAF40"/>
	</linearGradient>
	<path fill="url(#SVGID_6_)" d="M46.945,31.57c-7.937,0-14.395-6.544-14.395-14.587c0-8.043,6.458-14.586,14.395-14.586
		c7.938,0,14.396,6.543,14.396,14.586C61.341,25.026,54.883,31.57,46.945,31.57z M46.945,3.767c-7.182,0-13.024,5.929-13.024,13.216
		c0,7.288,5.843,13.217,13.024,13.217c7.182,0,13.025-5.929,13.025-13.217C59.971,9.695,54.127,3.767,46.945,3.767z"/>
	
		<line fill="none" stroke="#231F20" stroke-width="2.7692" stroke-miterlimit="10" x1="33.889" y1="39.516" x2="38.382" y2="32.306"/>
	<path fill="#FFFFFF" d="M32.915,38.827l-1.247-0.529c0,0,3.924-6.363,4.172-6.655c0.467-0.552,1.576-0.083,1.576-0.083
		L32.915,38.827z"/>
	<linearGradient id="SVGID_7_" gradientUnits="userSpaceOnUse" x1="25.6035" y1="53.1699" x2="23.5496" y2="51.8005">
		<stop  offset="0" style="stop-color:#001600"/>
		<stop  offset="0.9786" style="stop-color:#8AAF40"/>
	</linearGradient>
	<path fill="url(#SVGID_7_)" d="M19.225,70.379l-6.096-3.485L32.02,36.366c0,0,1.673,0.105,3.275,1.227
		c1.602,1.121,2.377,3.281,2.377,3.281L19.225,70.379z"/>
	
		<linearGradient id="SVGID_8_" gradientUnits="userSpaceOnUse" x1="4.0889" y1="72.6382" x2="3.6362" y2="62.813" gradientTransform="matrix(0.9934 0.1148 -0.1148 0.9934 19.2139 0.2285)">
		<stop  offset="0" style="stop-color:#001600"/>
		<stop  offset="0.9786" style="stop-color:#8AAF40"/>
	</linearGradient>
	<path fill="url(#SVGID_8_)" d="M16.696,71.385c-0.836-0.097-1.789-0.425-2.68-0.923c-2.142-1.193-3.262-2.912-2.606-3.998
		c0.359-0.594,1.152-0.854,2.231-0.729c0.836,0.097,1.789,0.424,2.681,0.922c2.142,1.197,3.398,2.969,2.741,4.054
		C18.702,71.305,17.774,71.509,16.696,71.385z"/>
	<g>
		<path fill="#231F20" d="M106.049,62.495h-4.774v-1.937h11.75v1.937h-4.774v13.422h-2.201V62.495z"/>
		<path fill="#231F20" d="M115.333,60.558h8.603v1.937h-6.403v4.488h5.831v1.937h-5.831v5.061h6.403v1.937h-8.603V60.558z"/>
		<path fill="#231F20" d="M132.317,60.558h2.311l6.491,15.358h-2.398l-1.562-3.873h-7.525l-1.562,3.873h-2.31L132.317,60.558z
			 M133.396,62.626l-3.058,7.613h6.117L133.396,62.626z"/>
		<path fill="#231F20" d="M143.361,60.558h3.63l4.819,12.763l4.73-12.763h3.63v15.358h-2.2v-13.29h-0.044l-5.083,13.29h-2.157
			l-5.083-13.29h-0.044v13.29h-2.2V60.558z"/>
		<path fill="#231F20" d="M175.085,60.558h2.311l6.491,15.358h-2.398l-1.562-3.873h-7.525l-1.562,3.873h-2.31L175.085,60.558z
			 M176.163,62.626l-3.058,7.613h6.117L176.163,62.626z"/>
		<path fill="#231F20" d="M193.037,66.587c-0.792-0.33-1.584-0.484-2.244-0.484c-2.311,0-3.608,2.068-3.608,4.202
			c0,2.003,1.078,4.203,3.74,4.203c0.704,0,1.584-0.221,2.223-0.639l0.154,1.849c-0.858,0.396-1.848,0.462-2.596,0.462
			c-3.389,0-5.721-2.662-5.721-5.875c0-3.41,2.289-5.875,5.721-5.875c0.836,0,1.914,0.199,2.508,0.441L193.037,66.587z"/>
		<path fill="#231F20" d="M196.204,65.487c1.034-0.615,2.266-1.057,3.696-1.057c3.212,0,4.511,1.585,4.511,4.644v4.643
			c0,1.276,0.044,1.87,0.088,2.2h-1.936v-1.452h-0.044c-0.484,0.683-1.584,1.716-3.476,1.716c-2.42,0-4.115-1.056-4.115-3.498
			c0-2.816,3.081-3.697,5.215-3.697c0.814,0,1.386,0,2.2,0.045c0-1.937-0.704-2.927-2.772-2.927c-1.166,0-2.42,0.44-3.256,1.144
			L196.204,65.487z M202.343,70.57c-0.44,0-0.88-0.044-1.32-0.044c-1.122,0-3.895,0.176-3.895,2.156c0,1.188,1.144,1.826,2.09,1.826
			c2.046,0,3.125-1.276,3.125-2.948V70.57z"/>
		<path fill="#231F20" d="M215.851,74.333h-0.044c-0.55,0.836-1.826,1.848-3.828,1.848c-3.389,0-4.819-3.014-4.819-6.072
			c0-3.015,1.584-5.678,4.841-5.678c1.958,0,3.081,0.771,3.718,1.805h0.044v-6.82h2.068v16.502h-1.98V74.333z M212.462,74.508
			c2.333,0,3.3-2.311,3.3-4.181c0-2.091-1.078-4.225-3.322-4.225s-3.125,2.112-3.081,4.159
			C209.316,72.022,210.24,74.508,212.462,74.508z"/>
		<path fill="#231F20" d="M229.952,75.455c-0.791,0.286-1.693,0.726-3.542,0.726c-3.982,0-5.809-2.42-5.809-6.072
			c0-3.322,2.091-5.678,5.259-5.678c3.74,0,4.951,2.729,4.951,6.338h-8.01c0,2.223,1.738,3.74,3.697,3.74
			c1.363,0,2.947-0.704,3.453-1.122V75.455z M228.61,69.227c0-1.716-1.012-3.124-2.794-3.124c-2.024,0-2.86,1.673-3.015,3.124
			H228.61z"/>
		<path fill="#231F20" d="M233.56,64.695h1.936v1.628h0.045c0.792-1.298,1.914-1.893,3.564-1.893c1.298,0,2.596,0.66,3.19,2.18
			c0.771-1.607,2.464-2.18,3.477-2.18c2.86,0,3.895,1.85,3.895,4.291v7.195h-2.068v-6.689c0-1.386-0.33-3.124-2.003-3.124
			c-2.111,0-2.947,2.068-2.947,4.159v5.654h-2.068v-6.689c0-1.386-0.33-3.124-2.003-3.124c-2.112,0-2.948,2.068-2.948,4.159v5.654
			h-2.068V64.695z"/>
		<path fill="#231F20" d="M252.304,78.954c0.264,0.088,0.615,0.176,0.967,0.176c1.85,0,2.465-2.553,2.465-2.773
			c0-0.241-0.264-0.813-0.396-1.188l-3.807-10.474h2.268l3.014,9.285h0.045l3.08-9.285h2.09l-4.137,11.464
			c-0.77,2.156-1.584,4.643-4.312,4.643c-0.66,0-1.034-0.088-1.408-0.154L252.304,78.954z"/>
		<path fill="#231F20" d="M278.858,75.455c-0.792,0.286-1.694,0.726-3.542,0.726c-3.982,0-5.809-2.42-5.809-6.072
			c0-3.322,2.09-5.678,5.258-5.678c3.74,0,4.951,2.729,4.951,6.338h-8.01c0,2.223,1.738,3.74,3.697,3.74
			c1.364,0,2.948-0.704,3.454-1.122V75.455z M277.517,69.227c0-1.716-1.013-3.124-2.794-3.124c-2.025,0-2.861,1.673-3.016,3.124
			H277.517z"/>
		<path fill="#231F20" d="M282.795,60.558h2.201v6.755l6.557-6.755h2.926l-7.217,7.261l7.789,8.098h-3.212l-6.843-7.525v7.525
			h-2.201V60.558z"/>
		<path fill="#231F20" d="M297.161,64.695h2.003v1.782h0.043c0.617-1.275,2.113-2.047,3.675-2.047c2.904,0,4.202,1.805,4.202,4.819
			v6.667h-2.068v-5.809c0-2.619-0.571-3.895-2.375-4.005c-2.355,0-3.411,1.893-3.411,4.62v5.193h-2.068V64.695z"/>
		<path fill="#231F20" d="M315.576,64.43c3.41,0,5.698,2.465,5.698,5.875c0,3.213-2.332,5.875-5.698,5.875
			c-3.389,0-5.721-2.662-5.721-5.875C309.855,66.895,312.143,64.43,315.576,64.43z M315.576,74.508c2.42,0,3.498-2.2,3.498-4.203
			c0-2.134-1.299-4.202-3.498-4.202c-2.223,0-3.521,2.068-3.521,4.202C312.055,72.308,313.133,74.508,315.576,74.508z"/>
		<path fill="#231F20" d="M336.74,75.917h-2.398l-2.904-9.418h-0.043l-2.839,9.418h-2.398l-3.608-11.222h2.266l2.575,9.285h0.044
			l2.86-9.285h2.442l2.816,9.285h0.044l2.729-9.285h2.024L336.74,75.917z"/>
		<path fill="#231F20" d="M342.635,59.415h2.068v16.502h-2.068V59.415z"/>
		<path fill="#231F20" d="M357.09,75.455c-0.792,0.286-1.693,0.726-3.543,0.726c-3.982,0-5.809-2.42-5.809-6.072
			c0-3.322,2.091-5.678,5.26-5.678c3.74,0,4.95,2.729,4.95,6.338h-8.009c0,2.223,1.738,3.74,3.696,3.74
			c1.364,0,2.948-0.704,3.454-1.122V75.455z M355.748,69.227c0-1.716-1.012-3.124-2.795-3.124c-2.023,0-2.859,1.673-3.014,3.124
			H355.748z"/>
		<path fill="#231F20" d="M368.662,74.333h-0.044c-0.551,0.836-1.826,1.848-3.829,1.848c-3.389,0-4.818-3.014-4.818-6.072
			c0-3.015,1.584-5.678,4.841-5.678c1.958,0,3.08,0.771,3.719,1.805h0.044v-6.82h2.068v16.502h-1.98V74.333z M365.273,74.508
			c2.332,0,3.301-2.311,3.301-4.181c0-2.091-1.078-4.225-3.322-4.225c-2.245,0-3.125,2.112-3.081,4.159
			C362.127,72.022,363.051,74.508,365.273,74.508z"/>
		<path fill="#231F20" d="M384.084,75.432c0,3.41-1.76,5.369-5.787,5.369c-1.188,0-2.222-0.154-4.026-0.77l0.22-1.915
			c1.585,0.726,2.531,1.013,4.049,1.013c2.179,0,3.477-1.475,3.477-3.852v-1.1h-0.044c-0.88,1.166-2.332,1.738-3.763,1.738
			c-3.212,0-4.797-2.618-4.797-5.523c0-2.882,1.629-5.963,5.018-5.963c1.979,0,3.08,0.727,3.696,1.938h0.044v-1.673h1.914V75.432z
			 M382.016,70.438c0-2.332-1.078-4.335-3.278-4.335c-2.09,0-3.124,2.267-3.124,4.181c0,2.112,1.188,3.961,3.124,3.961
			S382.016,72.528,382.016,70.438z"/>
		<path fill="#231F20" d="M396.205,75.455c-0.792,0.286-1.694,0.726-3.542,0.726c-3.982,0-5.81-2.42-5.81-6.072
			c0-3.322,2.091-5.678,5.259-5.678c3.741,0,4.951,2.729,4.951,6.338h-8.009c0,2.223,1.738,3.74,3.696,3.74
			c1.364,0,2.948-0.704,3.454-1.122V75.455z M394.863,69.227c0-1.716-1.013-3.124-2.795-3.124c-2.024,0-2.86,1.673-3.014,3.124
			H394.863z"/>
	</g>
	<g>
		<path fill="#8AAF40" d="M104.627,16.973H92.542v-6.646h32.63v6.646h-12.085v35.531h-8.46V16.973z"/>
		<path fill="#8AAF40" d="M127.529,10.327h24.896v6.646h-16.437v10.394h15.047v6.647h-15.047v11.844h16.557v6.646h-25.017V10.327z"
			/>
		<path fill="#8AAF40" d="M170.192,10.327h9.547l16.556,42.178h-9.366l-3.625-9.668h-17.101l-3.686,9.668h-8.762L170.192,10.327z
			 M174.845,18.786h-0.121L168.62,36.19h12.328L174.845,18.786z"/>
		<path fill="#8AAF40" d="M198.713,10.327h13.535l10.032,31.965h0.119l10.031-31.965h13.536v42.178h-8.098V17.7h-0.12L226.39,52.504
			h-8.099L206.931,17.7l-0.12,0.119v34.686h-8.098V10.327z"/>
	</g>
	<path fill="#231F20" d="M259.013,10.817h6.392l15.236,36.686l15.295-36.686h5.916V52.52h-4.123V14.94h-0.119l-15.176,37.58h-3.525
		l-15.654-37.58h-0.119v37.58h-4.122V10.817z"/>
	<path fill="#231F20" d="M328.482,51.565c-2.629,1.074-6.035,1.673-8.842,1.673c-10.098,0-13.861-6.812-13.861-15.952
		c0-9.321,5.139-15.953,12.846-15.953c8.604,0,12.127,6.93,12.127,15.115v1.912h-20.85c0,6.453,3.465,11.651,10.037,11.651
		c2.748,0,6.752-1.136,8.543-2.271V51.565z M326.631,35.134c0-5.317-2.15-10.575-7.768-10.575c-5.557,0-8.961,5.557-8.961,10.575
		H326.631z"/>
	<path fill="#231F20" d="M334.266,29.219c0-2.33,0-4.721-0.24-7.17h3.646v5.438h0.119c1.254-2.749,3.525-6.154,9.857-6.154
		c7.529,0,10.396,5.019,10.396,11.711V52.52h-3.764V33.999c0-5.736-2.033-9.439-7.23-9.439c-6.871,0-9.021,6.034-9.021,11.112V52.52
		h-3.764V29.219z"/>
	<path fill="#231F20" d="M376.525,25.276h-6.93v19.717c0,2.748,1.016,5.019,4.062,5.019c1.434,0,2.391-0.299,3.465-0.718
		l0.238,3.106c-0.896,0.358-2.748,0.838-4.6,0.838c-6.691,0-6.93-4.602-6.93-10.157V25.276h-5.977v-3.227h5.977V14.7l3.764-1.312
		v8.662h6.93V25.276z"/>
	<path fill="#231F20" d="M392.4,21.333c9.859,0,14.219,7.647,14.219,15.953c0,8.305-4.359,15.952-14.219,15.952
		c-9.857,0-14.219-7.647-14.219-15.952C378.182,28.98,382.543,21.333,392.4,21.333z M392.4,50.011
		c6.572,0,10.098-5.677,10.098-12.726c0-7.051-3.525-12.727-10.098-12.727s-10.096,5.676-10.096,12.727
		C382.305,44.334,385.828,50.011,392.4,50.011z"/>
	<path fill="#231F20" d="M410.742,28.86c0-3.345,0-4.6-0.24-6.811h3.766v5.855h0.119c1.375-3.406,3.941-6.572,7.826-6.572
		c0.896,0,1.973,0.179,2.629,0.357v3.945c-0.775-0.24-1.793-0.359-2.748-0.359c-5.977,0-7.59,6.691-7.59,12.188V52.52h-3.762V28.86z
		"/>
	<path fill="#FFFFFF" d="M38.204,47.987V35.325l-1.993,3.125c1.065,1.035,1.1,2.012,1.113,2.124l-0.061,0.547l-3.002,5.186
		C36.208,46.4,37.272,47.134,38.204,47.987z"/>
	<path fill="#FFFFFF" d="M50.48,20.768c-1.941-0.868-3.619-1.618-4.955-1.79c-2.909-0.375-4.606,1.104-5.411,2.127v7.246h-0.518
		v0.796c1.873,0.958,3.973,1.891,6.078,1.891c4.152,0,8.084-1.102,10.591-4.395c0.528-1.055,0.901-2.145,1.135-3.246
		C54.801,22.695,52.497,21.668,50.48,20.768z"/>
	<g>
		<path fill="#FFFFFF" d="M18.744,55.061l1.602-2.707c-2.082,0.59-4.674,0.949-7.516,0.695l-0.573-0.051V27.643
			c-0.703-0.001-1.424-0.025-2.168-0.075L10.02,55.739C13.217,55.953,16.536,55.505,18.744,55.061z"/>
		<path fill="#FFFFFF" d="M65.792,28.007v25.356l-0.573,0.049c-6.027,0.539-10.943-1.666-14.801-3.391
			c-1.943-0.869-3.622-1.618-4.957-1.789c-4.268-0.552-5.923,2.889-5.986,3.025l-0.397,0.857l-0.503-1.087
			c-0.061-0.13-1.572-3.265-5.416-3.075l-2.164,3.478c0.537-0.172,1.042-0.298,1.513-0.358c3.839-0.496,5.772,1.949,6.398,2.96
			l0.179,0.206c0.626-1.01,2.618-3.432,6.457-2.937c4.146,0.533,13.709,6.433,22.279,4.277l0.14-27.647
			C67.217,27.981,66.496,28.005,65.792,28.007z"/>
	</g>
</g>
</svg>
