<?xml version="1.0" encoding="utf-8"?>
<!-- Generator: Adobe Illustrator 16.0.0, SVG Export Plug-In . SVG Version: 6.00 Build 0)  -->
<!DOCTYPE svg PUBLIC "-//W3C//DTD SVG 1.1//EN" "http://www.w3.org/Graphics/SVG/1.1/DTD/svg11.dtd">
<svg version="1.1" id="Layer_1" xmlns="http://www.w3.org/2000/svg" xmlns:xlink="http://www.w3.org/1999/xlink" x="0px" y="0px"
	 width="693.343px" height="104.477px" viewBox="0 0 693.343 104.477" enable-background="new 0 0 693.343 104.477"
	 xml:space="preserve">
<g>
	<path d="M378.75,42.399h8.623v42.988h-8.623V42.399z"/>
	<path d="M395.606,53.668h7.821v4.312h0.123c2.588-3.635,6.098-5.05,10.406-5.05c7.512,0,10.777,5.297,10.777,12.438v20.017h-8.25
		V68.45c0-3.88-0.064-9.116-5.361-9.116c-5.971,0-7.266,6.471-7.266,10.534v15.521h-8.252L395.606,53.668L395.606,53.668z"/>
	<path d="M432.001,53.668h7.822v4.312h0.121c2.59-3.635,6.096-5.05,10.406-5.05c7.52,0,10.779,5.297,10.779,12.438v20.017h-8.252
		V68.45c0-3.88-0.062-9.116-5.357-9.116c-5.975,0-7.268,6.471-7.268,10.534v15.521h-8.252V53.668L432.001,53.668z"/>
	<path d="M482.931,52.931c9.42,0,16.623,6.342,16.623,16.811c0,9.114-6.096,16.386-16.623,16.386
		c-10.473,0-16.566-7.271-16.566-16.386C466.363,59.273,473.57,52.931,482.931,52.931z M482.931,79.72
		c6.342,0,8.012-5.667,8.012-10.963c0-4.865-2.596-9.425-8.012-9.425c-5.359,0-7.943,4.683-7.943,9.425
		C474.986,73.991,476.648,79.72,482.931,79.72z"/>
	<path d="M501.277,53.668h8.865l7.883,23.095h0.121l7.633-23.095h8.256l-11.701,31.72h-9.299L501.277,53.668z"/>
	<path d="M539.205,55.331c3.205-1.477,7.514-2.398,11.027-2.398c9.666,0,13.67,4.004,13.67,13.362v4.067
		c0,3.199,0.061,5.6,0.123,7.944c0.064,2.398,0.186,4.616,0.371,7.081h-7.268c-0.309-1.663-0.309-3.758-0.367-4.742h-0.125
		c-1.912,3.509-6.037,5.481-9.791,5.481c-5.607,0-11.088-3.387-11.088-9.425c0-4.744,2.279-7.514,5.422-9.055
		c3.137-1.539,7.207-1.846,10.65-1.846h4.561c0-5.112-2.279-6.836-7.145-6.836c-3.508,0-7.021,1.354-9.791,3.447L539.205,55.331z
		 M548.876,80.09c2.525,0,4.496-1.107,5.789-2.837c1.352-1.785,1.727-4.06,1.727-6.524h-3.572c-3.697,0-9.178,0.618-9.178,5.481
		C543.642,78.921,545.923,80.09,548.876,80.09z"/>
	<path d="M573.509,59.706h-6.096v-6.037h6.096v-6.341l8.25-2.648v8.989h7.332v6.037h-7.332v14.78c0,2.711,0.742,5.234,3.885,5.234
		c1.475,0,2.895-0.312,3.754-0.864l0.246,6.531c-1.721,0.49-3.631,0.739-6.094,0.739c-6.471,0-10.041-4.005-10.041-10.287V59.706
		L573.509,59.706z"/>
	<path d="M594.927,53.668h8.25v31.72h-8.25V53.668z"/>
	<path d="M625.164,52.931c9.422,0,16.625,6.342,16.625,16.811c0,9.114-6.094,16.386-16.625,16.386
		c-10.469,0-16.568-7.271-16.568-16.386C608.595,59.273,615.804,52.931,625.164,52.931z M625.164,79.72
		c6.34,0,8.004-5.667,8.004-10.963c0-4.865-2.588-9.425-8.004-9.425c-5.357,0-7.945,4.683-7.945,9.425
		C617.218,73.991,618.882,79.72,625.164,79.72z"/>
	<path d="M647.025,53.668h7.818v4.312h0.127c2.586-3.635,6.098-5.05,10.408-5.05c7.514,0,10.775,5.297,10.775,12.438v20.017h-8.252
		V68.45c0-3.88-0.062-9.116-5.357-9.116c-5.973,0-7.266,6.471-7.266,10.534v15.521h-8.256V53.668H647.025z"/>
	<g>
		<path fill="#686868" d="M101.197,82.605V66.838h4.391c1.224,4.692,3.064,8.04,5.52,10.045c2.454,2.011,5.104,3.014,7.95,3.014
			c2.113,0,3.792-0.579,5.044-1.738c1.25-1.159,1.878-2.525,1.878-4.093c0-1.113-0.394-2.229-1.177-3.34
			c-0.787-1.117-2.653-2.354-5.596-3.719c-5.66-2.585-9.485-4.488-11.466-5.7c-1.986-1.216-3.577-2.776-4.78-4.681
			c-1.199-1.904-1.798-4.095-1.798-6.57c0-3.966,1.537-7.238,4.616-9.812c3.077-2.574,6.637-3.863,10.681-3.863
			c4.243,0,7.849,1.323,10.814,3.967c0.49-0.686,0.896-1.73,1.212-3.144h4.232v13.584h-4.125c-0.736-3.006-2.132-5.481-4.19-7.43
			c-2.058-1.943-4.371-2.915-6.944-2.915c-1.933,0-3.471,0.497-4.609,1.494c-1.139,0.998-1.71,2.244-1.71,3.741
			c0,1.152,0.366,2.226,1.101,3.213c0.732,0.984,1.719,1.8,2.965,2.445c1.247,0.646,3.89,1.842,7.932,3.59
			c3.626,1.589,6.31,3.007,8.05,4.257c1.739,1.247,3.115,2.814,4.134,4.712c1.017,1.896,1.526,3.942,1.526,6.142
			c0,4.085-1.63,7.482-4.891,10.194c-3.261,2.708-7.147,4.063-11.66,4.063c-2.574,0-5.094-0.491-7.556-1.478
			c-2.463-0.989-4.435-2.3-5.902-3.937c-0.565,1.016-0.982,2.258-1.25,3.725L101.197,82.605L101.197,82.605z"/>
		<path fill="#686868" d="M152.484,69.014c0,3.729,0.679,6.529,2.039,8.407c1.356,1.872,3.396,2.814,6.113,2.814
			c2.893,0,5.545-1.373,7.97-4.114l3.421,1.912c-1.397,1.867-3.4,3.41-6.01,4.627c-2.607,1.217-5.491,1.828-8.649,1.828
			c-4.85,0-9-1.368-12.455-4.11c-3.451-2.733-5.178-6.438-5.178-11.096c0-4.659,1.67-8.321,5.01-10.977
			c3.344-2.657,7.363-3.988,12.065-3.988c4.723,0,8.596,1.215,11.618,3.646c3.026,2.435,4.537,6.118,4.537,11.05L152.484,69.014
			L152.484,69.014z M152.433,65.583h9.3c-0.147-5.025-1.728-7.542-4.742-7.542c-1.519,0-2.662,0.624-3.418,1.878
			C152.813,61.168,152.433,63.056,152.433,65.583z"/>
		<path fill="#686868" d="M204.448,74.768l3.761,1.533c-1.026,2.612-2.897,4.635-5.604,6.056c-2.707,1.423-5.862,2.133-9.461,2.133
			c-4.926,0-9.095-1.28-12.515-3.834c-3.416-2.56-5.125-6.086-5.125-10.59c0-4.728,1.864-8.531,5.588-11.423
			c3.727-2.88,8.555-4.324,14.489-4.324c3.677,0,6.588,0.623,8.732,1.869c2.146,1.25,3.219,2.896,3.219,4.939
			c0,1.158-0.423,2.17-1.27,3.048c-0.845,0.874-1.943,1.312-3.29,1.312c-2.67,0-4.377-1.615-5.111-4.838
			c-0.22-0.954-0.552-1.636-0.994-2.044c-0.439-0.408-1.202-0.614-2.279-0.614c-2.182,0-3.819,0.801-4.91,2.401
			c-1.089,1.604-1.636,4.007-1.636,7.21c0,4.385,0.654,7.538,1.964,9.46c1.309,1.922,3.358,2.879,6.148,2.879
			C199.971,79.942,202.733,78.219,204.448,74.768z"/>
		<path fill="#686868" d="M235.83,79.559c-1.598,1.631-3.318,2.86-5.168,3.688c-1.851,0.824-3.844,1.241-5.978,1.241
			c-2.721,0-5.195-0.703-7.414-2.109c-2.218-1.406-3.326-4.097-3.326-8.064V63.629c0-1.746-0.301-2.938-0.898-3.571
			c-0.598-0.637-1.817-0.954-3.651-0.954v-3.626H225.8v18.231c0,1.773,0.296,3.047,0.888,3.818c0.584,0.771,1.521,1.159,2.8,1.159
			c0.957,0,1.967-0.362,3.021-1.087c1.057-0.731,2.165-1.813,3.32-3.264V63.635c0-1.702-0.286-2.884-0.864-3.544
			c-0.574-0.657-1.921-0.987-4.045-0.987v-3.626h16.817v19.704c0,1.724,0.288,2.908,0.864,3.551
			c0.578,0.645,1.958,0.972,4.148,0.972v3.626c-0.665-0.023-1.264-0.035-1.8-0.035c-4.515,0-9.552,0.398-15.12,1.195L235.83,79.559
			L235.83,79.559z"/>
		<path fill="#686868" d="M267.994,61.329c1.423-2.336,3.036-4.09,4.85-5.258c1.812-1.168,3.808-1.752,5.988-1.752
			c2.082,0,3.656,0.604,4.736,1.816c1.079,1.213,1.619,2.528,1.619,3.96c0,1.337-0.429,2.48-1.287,3.432
			c-0.859,0.951-2.057,1.427-3.602,1.427c-0.832,0-1.517-0.146-2.06-0.44c-0.538-0.293-1.249-0.9-2.127-1.831
			c-0.885-0.901-1.84-1.354-2.869-1.354c-1.592,0-2.787,0.902-3.582,2.701c-0.798,1.808-1.193,4.511-1.193,8.119v3.026
			c0,1.678,0.282,2.854,0.845,3.521c0.566,0.672,1.865,1.006,3.903,1.006h0.737v3.626h-22.359v-3.626
			c2.14,0,3.494-0.328,4.062-0.989c0.565-0.654,0.848-1.834,0.848-3.532v-9.721c0-1.722-0.29-2.904-0.863-3.553
			c-0.577-0.643-1.943-0.967-4.101-0.967v-3.626l15.282-2.997C267.503,56.158,267.897,58.493,267.994,61.329z"/>
		<path fill="#686868" d="M305.396,54.319v20.856c0,1.724,0.297,2.909,0.887,3.557c0.588,0.645,1.967,0.972,4.129,0.972v3.626
			h-22.514v-3.626h0.843c2.093,0,3.412-0.343,3.965-1.021c0.555-0.682,0.835-1.852,0.835-3.51V65.034
			c0-1.68-0.286-2.854-0.851-3.523c-0.565-0.671-1.88-1.005-3.949-1.005h-0.843v-3.627L305.396,54.319z M293.014,42.517
			c0-1.672,0.65-3.113,1.953-4.319c1.303-1.213,2.861-1.818,4.677-1.818c1.839,0,3.396,0.601,4.675,1.799
			c1.278,1.197,1.917,2.646,1.917,4.34c0,1.698-0.646,3.146-1.937,4.347c-1.287,1.199-2.842,1.796-4.655,1.796
			c-1.889,0-3.469-0.614-4.73-1.849C293.648,45.579,293.014,44.147,293.014,42.517z"/>
		<path fill="#686868" d="M325.105,59.153v14.55c0,2.432,0.169,4.041,0.513,4.826c0.341,0.783,1.052,1.175,2.128,1.175
			c1.615,0,2.911-0.935,3.886-2.805l3.607,1.122c-1.863,4.312-5.842,6.469-11.941,6.469c-3.358,0-5.881-0.757-7.572-2.265
			c-1.688-1.511-2.534-3.776-2.534-6.794V59.153h-4.389v-3.676l0.921,0.033c2.973,0,5.516-0.871,7.629-2.611
			c2.113-1.745,3.389-3.962,3.832-6.657h3.918v9.235h9.038v3.676H325.105z"/>
		<path fill="#686868" d="M360.771,55.477v3.626c2.082,0,3.125,0.581,3.125,1.734c0,0.453-0.436,1.537-1.299,3.256l-4.902,9.579
			l-6.383-10.761c-0.789-1.314-1.18-2.139-1.18-2.482c0-0.817,0.966-1.26,2.904-1.326v-3.626h-19.54v3.626
			c1.217,0.088,2.076,0.31,2.573,0.652c0.498,0.348,1.241,1.353,2.238,3.021l0.61,0.979l12.969,20.83
			c-1.202,2.438-2.294,4.066-3.285,4.887c-0.554,0.461-1.453,0.896-2.666,1.307c-0.891-0.515-1.94-0.822-3.07-0.822
			c-3.199,0-5.789,2.399-5.789,5.358c0,1.937,1.114,3.625,2.777,4.565c0.061,0.038,0.123,0.072,0.185,0.105
			c0.21,0.106,0.422,0.204,0.646,0.287c0.124,0.048,0.25,0.09,0.378,0.13c0.229,0.065,0.46,0.124,0.704,0.165
			c0.105,0.022,0.22,0.035,0.332,0.05c0.211,0.025,0.42,0.041,0.635,0.046c0.104,0.002,0.199,0.021,0.311,0.021
			c2.127,0,3.893-0.668,5.287-2.003c1.398-1.338,3.244-4.226,5.547-8.665l11.771-22.608c2.111-4.008,3.467-6.354,4.066-7.058
			c0.603-0.696,1.623-1.113,3.07-1.249v-3.626L360.771,55.477L360.771,55.477z"/>
	</g>
	<path fill="#686868" d="M28.503,20.793c2.33-8.638,11.518-13.675,20.521-11.248c9.006,2.433,14.417,11.402,12.086,20.041
		l-1.982,7.949l8.806,2.374l2.14-7.906c3.61-13.387-4.777-27.291-18.729-31.054C37.391-2.813,23.15,4.99,19.882,17.563
		l-4.364,16.405l-5.227-1.408L7.249,43.844l47.404,12.78l-6.274,23.26C45.662,89.961,36.588,94.844,26.034,92
		c-10.558-2.845-15.94-11.635-13.221-21.712l4.492-17.395L5.654,49.748L0.973,67.1c-4.209,15.613,5.638,31.852,21.999,36.263
		c16.359,4.407,33.036-4.672,37.247-20.288l6.371-24.662l0,0l2.685-9.947L24.311,36.339L28.503,20.793z"/>
	<path d="M52.252,28.817c-1.093,4.058-5.271,6.462-9.324,5.366c-4.062-1.092-6.465-5.271-5.37-9.328
		c1.094-4.061,5.273-6.462,9.33-5.365C50.944,20.58,53.347,24.76,52.252,28.817z"/>
	<polygon points="34.596,85.767 22.107,82.397 29.582,55.163 42.07,58.531 	"/>
	<rect x="594.845" y="45.01" width="8.33" height="5.264"/>
	<g>
		<path d="M687.322,52.796c3.32,0,6.02,2.702,6.02,6.021c0,3.316-2.699,6.02-6.02,6.02c-3.314,0-6.02-2.702-6.02-6.02
			C681.302,55.499,684.007,52.796,687.322,52.796z M687.337,63.937c2.77,0,4.855-2.235,4.855-5.119c0-2.885-2.086-5.122-4.855-5.122
			c-2.799,0-4.887,2.237-4.887,5.122C682.451,61.702,684.539,63.937,687.337,63.937z M685.021,55.283h2.703
			c1.619,0,2.416,0.65,2.416,1.984c0,1.133-0.721,1.951-1.812,1.951l1.996,3.115h-1.215l-1.973-3.115h-0.963v3.115h-1.152V55.283z
			 M686.173,58.316h1.365c0.887,0,1.453-0.184,1.453-1.102c0-0.799-0.717-1.031-1.453-1.031h-1.365V58.316z"/>
	</g>
</g>
</svg>
