<?xml version="1.0" encoding="utf-8"?>
<!-- Generator: Adobe Illustrator 16.0.0, SVG Export Plug-In . SVG Version: 6.00 Build 0)  -->
<!DOCTYPE svg PUBLIC "-//W3C//DTD SVG 1.1//EN" "http://www.w3.org/Graphics/SVG/1.1/DTD/svg11.dtd">
<svg version="1.1" id="TEAM_Mentor_Logo_copy" xmlns="http://www.w3.org/2000/svg" xmlns:xlink="http://www.w3.org/1999/xlink"
	 x="0px" y="0px" width="420.842px" height="78.953px" viewBox="0 0 420.842 78.953" enable-background="new 0 0 420.842 78.953"
	 xml:space="preserve">
<g>
	<linearGradient id="SVGID_1_" gradientUnits="userSpaceOnUse" x1="35.2241" y1="62.1196" x2="35.2241" y2="9.1045">
		<stop  offset="0" style="stop-color:#4A651E"/>
		<stop  offset="0.9786" style="stop-color:#8AAF40"/>
	</linearGradient>
	<path fill="url(#SVGID_1_)" d="M69.77,8.62H54.302c-1.183-1.979-2.826-3.663-4.839-4.915c-2.334-1.453-4.003-2.269-6.739-2.269
		c-5.118,0-10.903,2.639-13.604,6.979c-0.043,0.069-0.139,0.136-0.18,0.204H0.651C0.013,24.23,2.93,36.74,7.311,46.595
		c0.246,0.554,0.073,1.743,0.327,2.278c0.503,1.061,0.455,1.453,1.474,2.494c1.432,1.463,2.273,3.33,3.424,4.869l-4.751,7.442
		c0,0-0.39,0.909-0.42,0.959c-0.298,0.479,0.291,0.31,0.838,1.058c0.481,0.656,1.241,1.326,2.139,1.885
		c1.152,0.717,1.935,0.621,2.824,0.621c0.753,0,1.751-0.143,1.773-0.203l0.016,0.01l3.122-5.019
		C27.165,73.127,35.207,77.9,35.207,77.9s14.643-7.087,24.891-25.302c0.38-0.678,1.645-1.395,2.013-2.104
		c0.787-1.512,0.776-1.441,1.297-2.546C68.154,37.879,70.441,25.004,69.77,8.62z"/>
	<linearGradient id="SVGID_2_" gradientUnits="userSpaceOnUse" x1="62.6069" y1="40.1978" x2="16.3508" y2="40.1978">
		<stop  offset="0" style="stop-color:#4A651E"/>
		<stop  offset="0.719" style="stop-color:#8AAF40;stop-opacity:0"/>
	</linearGradient>
	<path opacity="0.42" fill="url(#SVGID_2_)" d="M70.279,9.149H54.811c-1.183-1.979-2.826-3.662-4.839-4.914
		c-2.334-1.453-4.003-2.269-6.739-2.269c-5.118,0-10.903,2.638-13.604,6.979c-0.043,0.068-0.139,0.135-0.18,0.203H1.161
		C0.522,24.76,3.439,37.27,7.82,47.125c0.246,0.553,0.073,1.742,0.327,2.278c0.503,1.06,0.455,1.452,1.474,2.493
		c1.432,1.463,2.273,3.331,3.424,4.869l-4.606,7.4l0.005,0.004c-0.048,0.05-0.062,0.096-0.093,0.145
		c-0.298,0.479-0.187,1.162,0.361,1.91c0.481,0.657,1.241,1.327,2.139,1.885c1.152,0.717,2.37,1.145,3.259,1.145
		c0.753,0,1.098-0.3,1.255-0.553c0.035-0.055,0.061-0.113,0.083-0.174l0.016,0.01l3.122-5.018
		c9.089,10.137,17.131,14.91,17.131,14.91s14.643-7.088,24.891-25.303c0.38-0.677,1.645-1.395,2.013-2.104
		c0.787-1.511,0.776-1.441,1.297-2.545C68.663,38.409,70.951,25.534,70.279,9.149z"/>
	<path d="M0.18,7.835l-0.096,2.317c-0.482,11.77,1.134,21.766,3.895,30.176v13.725H3.979l-0.031,1.969c0,0,1.856,0.186,7.182-0.312
		c0.289,0.467,0.578,0.936,0.872,1.387l2.73-4.388c-0.234-0.392-0.469-0.789-0.7-1.192c-0.476-0.834-4.886-0.732-6.08-0.658
		c-1.128-1.773,0.146-13.284,0.087-13.476c-2.203-7.141-3.366-14.906-3.193-24.714h21.892c0.303-0.732,0.667-1.45,1.099-2.145
		c0.201-0.322,0.427-0.647,0.706-1.017c0.168-0.329,0.371-0.709,0.608-1.092c0.124-0.198,0.255-0.39,0.387-0.58H0.18z"/>
	<path d="M70.776,10.153L70.68,7.835H53.722c0.997,1.448,1.732,3.077,2.163,4.833h10.13c0.149,8.439-0.822,15.852-2.507,22.327
		c-0.492,1.89-0.182,13.617-1.396,16.063c-0.739,0.7-4.683,1.021-5.271,0.434c-0.355,0.623-0.722,1.215-1.087,1.809
		c-1.174-0.23-3.634-1.271-5.818-2.119c-4.597-1.785-7.796-2.952-9.714-2.792c-2.163-0.191-4.01,1.585-5.189,3.156
		c-0.911-1.36-2.096-2.274-3.542-2.726c-4.272-1.338-9.097,2.111-9.301,2.258l1.623,2.243c1.079-0.776,4.415-2.627,6.858-1.856
		c1.303,0.41,2.254,1.513,2.907,3.372l1.076,3.06l1.466-2.895c1.64-3.934,4.294-3.848,4.294-3.848
		c1.326-0.198,5.482,1.43,8.52,2.608c2.27,0.882,3.989,1.537,5.292,1.904C46.93,66.413,38.41,71.855,35.427,73.534
		c-2.548-1.436-9.125-5.602-15.532-13.468l-2.579,4.146c8.462,9.931,16.883,14.146,17.058,14.231l1.053,0.51l1.052-0.51
		c0.215-0.104,12.969-6.497,22.88-22.138c1.6,0.299,6.612-0.176,6.669-0.547c0.019-0.12,0.025-0.316,0.026-0.529l0.01-0.001v-12.56
		C69.314,33.789,71.303,23.034,70.776,10.153z"/>
	<path fill="#FFFFFF" d="M55.366,21.452c-0.332,0.855-0.744,1.688-1.24,2.484c-0.193,0.311-0.413,0.627-0.703,1.014
		c-0.223,0.436-0.412,0.777-0.609,1.096c-2.701,4.34-7.37,6.93-12.487,6.93c-1.492,0-2.962-0.244-4.372-0.69v13.313
		c1.15-1.055,2.986-2.061,5.73-1.709c1.519,0.194,3.276,0.979,5.309,1.888c3.608,1.613,8.167,3.63,13.287,3.409V21.892
		C58.747,21.915,57.004,21.76,55.366,21.452z"/>
	<g>
		<path fill="#FFFFFF" d="M34.247,26.982v-7.967c-0.327-0.617-2.052-3.41-5.929-2.911c-0.104,0.014-0.214,0.037-0.323,0.058
			C28.134,20.445,30.352,24.537,34.247,26.982z"/>
		<path fill="#FFFFFF" d="M17.897,47.542l8.42-13.546l0.151-0.062c0.119-0.048,0.878-0.317,2.335,0.224l2.617-4.205
			c-3.941-3.01-5.986-7.729-5.742-12.454c-0.629,0.261-1.295,0.56-1.997,0.872c-3.711,1.658-8.396,3.752-13.722,3.521l0.162,26.9
			C12.669,48.875,15.479,48.308,17.897,47.542z"/>
	</g>
	<path fill="#FFFFFF" d="M49.174,4.169c-2.232-1.39-4.792-2.124-7.4-2.124c-4.807,0-9.177,2.414-11.69,6.457
		c-0.427,0.684-0.784,1.396-1.079,2.129c-0.002,0.002-0.004,0.006-0.006,0.008l0.002,0.002c-1.05,2.607-1.271,5.475-0.601,8.281
		c0.858,3.597,3.07,6.658,6.226,8.623c2.233,1.389,4.792,2.123,7.401,2.123c4.806,0,9.176-2.413,11.692-6.454
		C57.731,16.77,55.692,8.227,49.174,4.169z M42.027,29.02c-2.487,0-4.928-0.701-7.058-2.025c-3.011-1.875-5.119-4.795-5.938-8.223
		c-0.636-2.662-0.431-5.383,0.558-7.857c3.888-5.635,11.573-7.486,17.487-3.808c5.954,3.704,7.873,11.69,4.432,17.781l0.073,0.041
		C49.138,27.524,45.719,29.02,42.027,29.02z M53.168,22.871c-0.039,0.062-0.081,0.12-0.12,0.181
		c2.124-5.953-0.118-12.715-5.681-16.174c-5.348-3.329-12.04-2.585-16.402,1.471c2.436-3.549,6.43-5.652,10.809-5.652
		c2.487,0,4.927,0.701,7.057,2.025C55.045,8.589,56.991,16.731,53.168,22.871z"/>
	<path fill="#FFFFFF" d="M29.885,34.543l-0.662-0.283l3.426-5.395l0.078-0.042c0.036-0.02,0.869-0.455,2.007,0.249
		c0.372,0.232,0.638,0.5,0.825,0.754c0.37,0.5-0.186,0.658-0.221,0.58c-0.118-0.262-0.378-0.564-0.873-0.875
		c-0.63-0.389-1.19-0.314-1.35-0.142L29.885,34.543z"/>
	<linearGradient id="SVGID_3_" gradientUnits="userSpaceOnUse" x1="20.9258" y1="50.3413" x2="8.7588" y2="68.5083">
		<stop  offset="0" style="stop-color:#FFFFFF"/>
		<stop  offset="0.6266" style="stop-color:#8AAF40"/>
	</linearGradient>
	<path fill="url(#SVGID_3_)" d="M32.829,38.021c-0.271-0.619-0.84-1.374-2.006-2.103c-2.469-1.533-2.688-3.299-2.812-3.287
		l-1.125,1.85L8.638,63.773c0,0,0.172-0.046,0.404-0.072v0.006c0.78-0.066,1.968,0.341,3.103,1.048
		c1.146,0.713,2.058,1.638,2.325,2.357l0.278-0.475c-0.406-0.748-1.277-1.59-2.364-2.267c-0.845-0.525-1.725-0.886-2.478-1.038
		c0.435-0.599,17.406-28.109,17.406-28.109c0.378,0.044,1.387,0.264,3.112,1.336c1.577,0.982,1.983,1.866,2.009,2.354
		C32.434,38.913,32.992,38.393,32.829,38.021z"/>
	<linearGradient id="SVGID_4_" gradientUnits="userSpaceOnUse" x1="38.3604" y1="13.8931" x2="45.1496" y2="20.6823">
		<stop  offset="0" style="stop-color:#000000"/>
		<stop  offset="0.9786" style="stop-color:#8AAF40"/>
	</linearGradient>
	<path fill="url(#SVGID_4_)" d="M40.597,33.028c-8.497,0-13.736-7.453-13.736-15.949c0-8.498,5.922-16.13,14.419-16.13
		s15.29,6.728,15.29,15.224C56.571,24.67,49.094,33.028,40.597,33.028z M40.464,5.336c-6.534,0-11.85,5.316-11.85,11.851
		s7.576,11.792,14.11,11.792c6.535,0,9.591-5.258,9.591-11.792S46.998,5.336,40.464,5.336z"/>
	<linearGradient id="SVGID_5_" gradientUnits="userSpaceOnUse" x1="41.7739" y1="17.4023" x2="37.3825" y2="9.976">
		<stop  offset="0" style="stop-color:#000000"/>
		<stop  offset="0.9786" style="stop-color:#8AAF40"/>
	</linearGradient>
	<path fill="url(#SVGID_5_)" d="M41.104,33.153c-9.256,0-15.399-5.323-15.399-14.592c0-9.036,7.377-18.191,16.692-18.334
		c8.862-0.137,15.88,7.875,14.896,15.355C56.121,24.483,50.005,33.153,41.104,33.153z M43.053,1.081
		c-6.826,0-13.649,6.059-13.649,13.059c0,6.93,5.515,14.934,12.271,14.502c9.252-0.591,14.831-7.389,14.831-14.371
		C56.505,7.27,49.88,1.081,43.053,1.081z"/>
	<linearGradient id="SVGID_6_" gradientUnits="userSpaceOnUse" x1="43.2939" y1="11.0669" x2="45.4189" y2="-10.4331">
		<stop  offset="0" style="stop-color:#FFFFFF"/>
		<stop  offset="0.6266" style="stop-color:#8AAF40"/>
	</linearGradient>
	<path fill="url(#SVGID_6_)" d="M42.945,29.174c-7.937,0-14.395-6.544-14.395-14.587C28.551,6.543,35.008,0,42.945,0
		c7.938,0,14.396,6.543,14.396,14.586C57.341,22.63,50.883,29.174,42.945,29.174z M42.945,1.37c-7.182,0-13.024,5.929-13.024,13.216
		c0,7.288,5.843,13.217,13.024,13.217c7.182,0,13.025-5.929,13.025-13.217C55.971,7.299,50.127,1.37,42.945,1.37z"/>
	<line fill="none" stroke="#000000" stroke-width="2.7692" stroke-miterlimit="10" x1="29.889" y1="37.12" x2="34.382" y2="29.91"/>
	<path fill="#FFFFFF" d="M28.915,36.43l-1.247-0.529c0,0,3.924-6.363,4.172-6.655c0.467-0.552,1.576-0.083,1.576-0.083L28.915,36.43
		z"/>
	<linearGradient id="SVGID_7_" gradientUnits="userSpaceOnUse" x1="21.6025" y1="50.7729" x2="19.5484" y2="49.4033">
		<stop  offset="0" style="stop-color:#000000"/>
		<stop  offset="0.9786" style="stop-color:#8AAF40"/>
	</linearGradient>
	<path fill="url(#SVGID_7_)" d="M15.225,67.983l-6.096-3.485L28.02,33.969c0,0,1.673,0.105,3.275,1.227
		c1.602,1.121,2.377,3.281,2.377,3.281L15.225,67.983z"/>
	
		<linearGradient id="SVGID_8_" gradientUnits="userSpaceOnUse" x1="10.9331" y1="70.7368" x2="10.4805" y2="60.9134" gradientTransform="matrix(0.9934 0.1148 -0.1148 0.9934 8.196 -1.0647)">
		<stop  offset="0" style="stop-color:#000000"/>
		<stop  offset="0.9786" style="stop-color:#8AAF40"/>
	</linearGradient>
	<path fill="url(#SVGID_8_)" d="M12.696,68.989c-0.836-0.097-1.789-0.425-2.68-0.923c-2.142-1.193-3.262-2.912-2.606-3.998
		c0.359-0.594,1.152-0.854,2.231-0.729c0.836,0.097,1.789,0.424,2.681,0.922c2.142,1.197,3.398,2.969,2.741,4.054
		C14.702,68.909,13.774,69.113,12.696,68.989z"/>
	<g>
		<path d="M102.049,60.098h-4.774v-1.937h11.75v1.937h-4.774V73.52h-2.201V60.098z"/>
		<path d="M111.333,58.162h8.603v1.937h-6.403v4.488h5.831v1.937h-5.831v5.061h6.403v1.937h-8.603V58.162z"/>
		<path d="M128.317,58.162h2.311l6.491,15.358h-2.398l-1.562-3.873h-7.525l-1.562,3.873h-2.31L128.317,58.162z M129.396,60.23
			l-3.058,7.613h6.117L129.396,60.23z"/>
		<path d="M139.361,58.162h3.63l4.819,12.763l4.73-12.763h3.63V73.52h-2.2V60.23h-0.044l-5.083,13.29h-2.157l-5.083-13.29h-0.044
			v13.29h-2.2V58.162z"/>
		<path d="M171.085,58.162h2.311l6.491,15.358h-2.398l-1.562-3.873h-7.525l-1.562,3.873h-2.31L171.085,58.162z M172.163,60.23
			l-3.058,7.613h6.117L172.163,60.23z"/>
		<path d="M189.037,64.191c-0.792-0.33-1.584-0.484-2.244-0.484c-2.311,0-3.608,2.068-3.608,4.202c0,2.003,1.078,4.203,3.74,4.203
			c0.704,0,1.584-0.221,2.223-0.639l0.154,1.849c-0.858,0.396-1.848,0.462-2.596,0.462c-3.389,0-5.721-2.662-5.721-5.875
			c0-3.41,2.289-5.875,5.721-5.875c0.836,0,1.914,0.199,2.508,0.441L189.037,64.191z"/>
		<path d="M192.204,63.09c1.034-0.615,2.266-1.057,3.696-1.057c3.212,0,4.511,1.585,4.511,4.644v4.643c0,1.276,0.044,1.87,0.088,2.2
			h-1.936v-1.452h-0.044c-0.484,0.683-1.584,1.716-3.476,1.716c-2.42,0-4.115-1.056-4.115-3.498c0-2.816,3.081-3.697,5.215-3.697
			c0.814,0,1.386,0,2.2,0.045c0-1.937-0.704-2.927-2.772-2.927c-1.166,0-2.42,0.44-3.256,1.144L192.204,63.09z M198.343,68.173
			c-0.44,0-0.88-0.044-1.32-0.044c-1.122,0-3.895,0.176-3.895,2.156c0,1.188,1.144,1.826,2.09,1.826
			c2.046,0,3.125-1.276,3.125-2.948V68.173z"/>
		<path d="M211.851,71.936h-0.044c-0.55,0.836-1.826,1.848-3.828,1.848c-3.389,0-4.819-3.014-4.819-6.072
			c0-3.015,1.584-5.678,4.841-5.678c1.958,0,3.08,0.771,3.718,1.805h0.044v-6.82h2.068V73.52h-1.98V71.936z M208.462,72.112
			c2.333,0,3.3-2.311,3.3-4.181c0-2.091-1.078-4.225-3.322-4.225s-3.125,2.112-3.081,4.159
			C205.316,69.625,206.24,72.112,208.462,72.112z"/>
		<path d="M225.953,73.058c-0.792,0.286-1.694,0.726-3.542,0.726c-3.982,0-5.809-2.42-5.809-6.072c0-3.322,2.09-5.678,5.259-5.678
			c3.74,0,4.951,2.729,4.951,6.338h-8.009c0,2.223,1.738,3.74,3.697,3.74c1.364,0,2.948-0.704,3.454-1.122V73.058z M224.611,66.831
			c0-1.716-1.012-3.124-2.794-3.124c-2.024,0-2.86,1.673-3.015,3.124H224.611z"/>
		<path d="M229.56,62.298h1.936v1.628h0.044c0.792-1.298,1.914-1.893,3.564-1.893c1.298,0,2.596,0.66,3.19,2.18
			c0.77-1.607,2.464-2.18,3.477-2.18c2.86,0,3.895,1.85,3.895,4.291v7.195h-2.068v-6.689c0-1.386-0.33-3.124-2.002-3.124
			c-2.112,0-2.948,2.068-2.948,4.159v5.654h-2.068v-6.689c0-1.386-0.33-3.124-2.002-3.124c-2.112,0-2.948,2.068-2.948,4.159v5.654
			h-2.068V62.298z"/>
		<path d="M248.303,76.557c0.264,0.088,0.616,0.176,0.968,0.176c1.849,0,2.464-2.553,2.464-2.773c0-0.241-0.264-0.813-0.396-1.188
			l-3.807-10.474h2.267l3.014,9.285h0.044l3.08-9.285h2.09l-4.137,11.464c-0.77,2.156-1.584,4.643-4.312,4.643
			c-0.66,0-1.034-0.088-1.408-0.154L248.303,76.557z"/>
		<path d="M274.858,73.058c-0.792,0.286-1.694,0.726-3.542,0.726c-3.982,0-5.809-2.42-5.809-6.072c0-3.322,2.09-5.678,5.258-5.678
			c3.74,0,4.951,2.729,4.951,6.338h-8.01c0,2.223,1.738,3.74,3.697,3.74c1.364,0,2.948-0.704,3.454-1.122V73.058z M273.517,66.831
			c0-1.716-1.013-3.124-2.794-3.124c-2.025,0-2.861,1.673-3.016,3.124H273.517z"/>
		<path d="M278.795,58.162h2.201v6.755l6.557-6.755h2.926l-7.217,7.261l7.789,8.098h-3.212l-6.843-7.525v7.525h-2.201V58.162z"/>
		<path d="M293.161,62.298h2.003v1.782h0.043c0.617-1.275,2.113-2.047,3.675-2.047c2.904,0,4.202,1.805,4.202,4.819v6.667h-2.068
			v-5.809c0-2.619-0.571-3.895-2.375-4.005c-2.355,0-3.411,1.893-3.411,4.62v5.193h-2.068V62.298z"/>
		<path d="M311.576,62.034c3.41,0,5.698,2.465,5.698,5.875c0,3.213-2.332,5.875-5.698,5.875c-3.389,0-5.721-2.662-5.721-5.875
			C305.855,64.499,308.143,62.034,311.576,62.034z M311.576,72.112c2.42,0,3.498-2.2,3.498-4.203c0-2.134-1.299-4.202-3.498-4.202
			c-2.223,0-3.521,2.068-3.521,4.202C308.055,69.912,309.133,72.112,311.576,72.112z"/>
		<path d="M332.74,73.52h-2.398l-2.904-9.418h-0.043l-2.839,9.418h-2.398l-3.608-11.222h2.266l2.575,9.285h0.044l2.86-9.285h2.442
			l2.816,9.285h0.044l2.729-9.285h2.024L332.74,73.52z"/>
		<path d="M338.635,57.018h2.068V73.52h-2.068V57.018z"/>
		<path d="M353.09,73.058c-0.792,0.286-1.693,0.726-3.543,0.726c-3.982,0-5.809-2.42-5.809-6.072c0-3.322,2.091-5.678,5.26-5.678
			c3.74,0,4.95,2.729,4.95,6.338h-8.009c0,2.223,1.738,3.74,3.696,3.74c1.364,0,2.948-0.704,3.454-1.122V73.058z M351.748,66.831
			c0-1.716-1.012-3.124-2.795-3.124c-2.023,0-2.859,1.673-3.014,3.124H351.748z"/>
		<path d="M364.662,71.936h-0.044c-0.551,0.836-1.826,1.848-3.829,1.848c-3.389,0-4.818-3.014-4.818-6.072
			c0-3.015,1.584-5.678,4.841-5.678c1.958,0,3.08,0.771,3.719,1.805h0.044v-6.82h2.068V73.52h-1.98V71.936z M361.273,72.112
			c2.332,0,3.301-2.311,3.301-4.181c0-2.091-1.078-4.225-3.322-4.225c-2.245,0-3.125,2.112-3.081,4.159
			C358.127,69.625,359.051,72.112,361.273,72.112z"/>
		<path d="M380.084,73.036c0,3.41-1.76,5.369-5.787,5.369c-1.188,0-2.222-0.154-4.026-0.77l0.22-1.915
			c1.585,0.726,2.531,1.013,4.049,1.013c2.179,0,3.477-1.475,3.477-3.852v-1.1h-0.044c-0.88,1.166-2.332,1.738-3.763,1.738
			c-3.212,0-4.797-2.618-4.797-5.523c0-2.882,1.629-5.963,5.018-5.963c1.979,0,3.08,0.727,3.696,1.938h0.044v-1.673h1.914V73.036z
			 M378.016,68.042c0-2.332-1.078-4.335-3.278-4.335c-2.09,0-3.124,2.267-3.124,4.181c0,2.112,1.188,3.961,3.124,3.961
			S378.016,70.131,378.016,68.042z"/>
		<path d="M392.205,73.058c-0.792,0.286-1.694,0.726-3.542,0.726c-3.982,0-5.81-2.42-5.81-6.072c0-3.322,2.091-5.678,5.259-5.678
			c3.741,0,4.951,2.729,4.951,6.338h-8.009c0,2.223,1.738,3.74,3.696,3.74c1.364,0,2.948-0.704,3.454-1.122V73.058z M390.863,66.831
			c0-1.716-1.013-3.124-2.795-3.124c-2.024,0-2.86,1.673-3.014,3.124H390.863z"/>
	</g>
	<g>
		<path fill="#8AAF40" d="M100.627,14.577H88.542V7.93h32.63v6.646h-12.085v35.531h-8.46V14.577z"/>
		<path fill="#8AAF40" d="M123.529,7.93h24.896v6.646h-16.437V24.97h15.047v6.647h-15.047v11.844h16.557v6.646h-25.017V7.93z"/>
		<path fill="#8AAF40" d="M166.192,7.93h9.547l16.556,42.178h-9.366l-3.625-9.668h-17.101l-3.686,9.668h-8.762L166.192,7.93z
			 M170.845,16.389h-0.121l-6.104,17.404h12.328L170.845,16.389z"/>
		<path fill="#8AAF40" d="M194.713,7.93h13.535l10.032,31.965h0.12L228.43,7.93h13.537v42.178h-8.098V15.303h-0.12l-11.36,34.805
			h-8.098l-11.36-34.805l-0.12,0.119v34.686h-8.098V7.93z"/>
	</g>
	<path d="M255.013,8.42h6.392l15.236,36.686L291.936,8.42h5.916v41.703h-4.123v-37.58h-0.119l-15.176,37.58h-3.525l-15.654-37.58
		h-0.119v37.58h-4.122V8.42z"/>
	<path d="M324.482,49.168c-2.629,1.074-6.035,1.673-8.842,1.673c-10.098,0-13.861-6.812-13.861-15.952
		c0-9.321,5.139-15.953,12.846-15.953c8.604,0,12.127,6.93,12.127,15.115v1.912h-20.85c0,6.453,3.465,11.651,10.037,11.651
		c2.748,0,6.752-1.136,8.543-2.271V49.168z M322.631,32.738c0-5.317-2.15-10.575-7.768-10.575c-5.557,0-8.961,5.557-8.961,10.575
		H322.631z"/>
	<path d="M330.266,26.823c0-2.33,0-4.721-0.24-7.17h3.646v5.438h0.119c1.254-2.749,3.525-6.154,9.857-6.154
		c7.529,0,10.396,5.019,10.396,11.711v19.477h-3.764V31.602c0-5.736-2.033-9.439-7.23-9.439c-6.871,0-9.021,6.034-9.021,11.112
		v16.849h-3.764V26.823z"/>
	<path d="M372.525,22.879h-6.93v19.717c0,2.748,1.016,5.019,4.062,5.019c1.434,0,2.391-0.299,3.465-0.718l0.238,3.106
		c-0.896,0.358-2.748,0.838-4.6,0.838c-6.691,0-6.93-4.602-6.93-10.157V22.879h-5.977v-3.227h5.977v-7.35l3.764-1.312v8.662h6.93
		V22.879z"/>
	<path d="M388.4,18.936c9.859,0,14.219,7.647,14.219,15.953c0,8.305-4.359,15.952-14.219,15.952
		c-9.857,0-14.219-7.647-14.219-15.952C374.182,26.583,378.543,18.936,388.4,18.936z M388.4,47.615
		c6.572,0,10.098-5.677,10.098-12.726c0-7.051-3.525-12.727-10.098-12.727s-10.096,5.676-10.096,12.727
		C378.305,41.938,381.828,47.615,388.4,47.615z"/>
	<path d="M406.742,26.463c0-3.345,0-4.6-0.24-6.811h3.766v5.855h0.119c1.375-3.406,3.941-6.572,7.826-6.572
		c0.896,0,1.973,0.179,2.629,0.357v3.945c-0.775-0.24-1.793-0.359-2.748-0.359c-5.977,0-7.59,6.691-7.59,12.188v15.056h-3.762
		V26.463z"/>
	<path fill="#FFFFFF" d="M34.204,45.59V32.928l-1.993,3.125c1.065,1.035,1.1,2.012,1.113,2.124l-0.061,0.547l-3.002,5.186
		C32.208,44.003,33.272,44.738,34.204,45.59z"/>
	<path fill="#FFFFFF" d="M46.48,18.372c-1.941-0.868-3.619-1.618-4.955-1.79c-2.909-0.375-4.606,1.104-5.411,2.127v7.246h-0.518
		v0.796c1.873,0.958,3.973,1.891,6.078,1.891c4.152,0,8.084-1.102,10.591-4.395c0.528-1.055,0.901-2.145,1.135-3.246
		C50.801,20.298,48.497,19.272,46.48,18.372z"/>
	<g>
		<path fill="#FFFFFF" d="M14.744,52.665l1.602-2.707c-2.082,0.59-4.674,0.949-7.516,0.695l-0.573-0.051V25.247
			c-0.703-0.001-1.424-0.025-2.168-0.075L6.02,53.342C9.217,53.556,12.536,53.109,14.744,52.665z"/>
		<path fill="#FFFFFF" d="M61.792,25.611v25.356l-0.573,0.049c-6.027,0.539-10.943-1.666-14.801-3.391
			c-1.943-0.869-3.622-1.618-4.957-1.789c-4.268-0.552-5.923,2.889-5.986,3.025l-0.397,0.857l-0.503-1.087
			c-0.061-0.13-1.572-3.265-5.416-3.075l-2.164,3.478c0.537-0.172,1.042-0.298,1.513-0.358c3.839-0.496,5.772,1.949,6.398,2.96
			l0.179,0.206c0.626-1.01,2.618-3.432,6.457-2.937c4.146,0.533,13.709,6.433,22.279,4.277l0.14-27.647
			C63.217,25.584,62.496,25.609,61.792,25.611z"/>
	</g>
</g>
</svg>
